<svg xmlns="http://www.w3.org/2000/svg" xmlns:xlink="http://www.w3.org/1999/xlink" fill="none" version="1.1" width="20" height="20" viewBox="0 0 20 20"><defs><clipPath id="master_svg0_227_0926"><rect x="0" y="0" width="20" height="20" rx="0"/></clipPath></defs><g clip-path="url(#master_svg0_227_0926)"><g transform="matrix(1,0,0,-1,0,40.87712097167969)"><g><path d="M0.107826,31.148760485839844L17.581,41.17246048583984L17.6059,41.184960485839845Q18.8355,41.80216048583985,19.9455,41.03606048583984Q21.0536,40.271260485839846,20.9173,38.90296048583984L20.9146,38.87676048583984L18.417,22.578610485839842L18.4126,22.556740485839843Q18.2109,21.544110485839845,17.3349,21.002944485839844L17.2974,20.979754485839845L17.2579,20.959960485839844Q16.2971,20.477646985839844,15.3246,20.896038485839842L11.317,22.538720485839843L9.11716,20.135389485839845L9.09003,20.109857485839843Q8.0245,19.107020485839843,6.67239,19.582107485839845L6.62235,19.599692485839842L6.57444,19.622473485839844Q5.2941,20.231319485839844,5.2268,21.650060485839845L5.22568,21.673730485839844L5.22568,24.978690485839845Q5.22568,25.612900485839845,5.65475,26.056610485839844L7.25176,27.803000485839846L4.28427,25.146780485839844L0.241365,27.176130485839842L0.231076,27.181590485839845Q-0.930092,27.798730485839844,-0.998629,29.106020485839842L-1,29.132180485839843L-1,29.158380485839842Q-1,30.453660485839844,0.0910828,31.138260485839844L0.107826,31.148760485839844ZM18.5214,39.40616048583985L1.14247,29.436570485839844Q1.01073,29.347470485839843,1.00081,29.185270485839844Q1.0193,29.031210485839843,1.16244,28.951610485839844L3.96476,27.544970485839844L11.4088,34.20816048583984L11.4671,34.247260485839846Q12.5821,34.99346048583985,13.5498,34.11916048583984L13.6064,34.06796048583985L13.6545,34.00886048583985Q14.4904,32.98326048583984,13.7281,31.931060485839843L13.6947,31.884960485839844L7.22568,24.810820485839844L7.22568,21.727500485839844Q7.24061,21.547030485839844,7.38556,21.454940485839845Q7.55013,21.420602485839844,7.69818,21.547280485839842L10.7841,24.918670485839844L16.1151,22.733210485839844Q16.2136,22.690820485839843,16.3203,22.729870485839843Q16.418,22.806290485839845,16.4478,22.931950485839845L18.9287,39.120560485839846Q18.9395,39.30026048583984,18.8094,39.39006048583984Q18.6815,39.47836048583984,18.5214,39.40616048583985Z" fill-rule="evenodd" fill="#6B7280" fill-opacity="1"/></g></g></g></svg>