<svg xmlns="http://www.w3.org/2000/svg" xmlns:xlink="http://www.w3.org/1999/xlink" fill="none" version="1.1" width="16.001837520228293" height="34.00000304295563" viewBox="0 0 16.001837520228293 34.00000304295563"><g transform="matrix(-1,-1.9016296448626235e-7,1.9016296448626235e-7,-1,32.003655643833625,68.0000091288669)"><path d="M30.5887310546875,58.23780304295563Q30.6038310546875,58.29320304295563,30.612431054687498,58.350003042955635Q30.6210310546875,58.40680304295563,30.623131054687498,58.46420304295563Q30.6251310546875,58.52160304295563,30.6206310546875,58.57890304295563Q30.6161310546875,58.63610304295563,30.6050310546875,58.692503042955636Q30.5940310546875,58.74890304295563,30.5765310546875,58.80360304295563Q30.559131054687498,58.85830304295563,30.5355310546875,58.91070304295563Q30.5119310546875,58.96310304295564,30.4825310546875,59.01240304295563Q30.4530310546875,59.06170304295563,30.4182310546875,59.10740304295563Q30.383331054687503,59.15300304295563,30.3434310546875,59.19430304295563Q30.3035310546875,59.235703042955635,30.2591310546875,59.27220304295564Q30.2148310546875,59.308703042955635,30.1665310546875,59.33990304295563Q30.118331054687502,59.371003042955635,30.066831054687498,59.39650304295563Q30.0153310546875,59.421903042955634,29.961231054687502,59.44130304295563Q29.9072310546875,59.46070304295563,29.8512310546875,59.47380304295564Q29.7953310546875,59.48680304295563,29.7382310546875,59.493403042955634Q29.6812310546875,59.50000304295563,29.6237310546875,59.50000304295563L18.3817310546875,59.50000304295563Q18.3242910546875,59.50000304295563,18.2672310546875,59.493403042955634Q18.2101710546875,59.48680304295563,18.1542310546875,59.47380304295564Q18.0982910546875,59.46070304295563,18.0442210546875,59.44130304295563Q17.9901510546875,59.421903042955634,17.9386610546875,59.39650304295563Q17.8871610546875,59.371003042955635,17.8389210546875,59.33990304295563Q17.7906810546875,59.308703042955635,17.7463210546875,59.27220304295564Q17.7019710546875,59.235703042955635,17.6620810546875,59.19430304295563Q17.6222010546875,59.15300304295563,17.5873110546875,59.10740304295563Q17.5524210546875,59.06170304295563,17.522991054687502,59.01240304295563Q17.4935610546875,58.96310304295564,17.4699710546875,58.91070304295563Q17.4463710546875,58.85830304295563,17.4289310546875,58.80360304295563Q17.4115010546875,58.74890304295563,17.4004410546875,58.692503042955636Q17.3893810546875,58.63610304295563,17.3848510546875,58.57890304295563Q17.3803210546875,58.52160304295563,17.3823810546875,58.46420304295563Q17.3844310546875,58.40680304295563,17.3930510546875,58.350003042955635Q17.4016610546875,58.29320304295563,17.4167310546875,58.23780304295563L23.0377410546875,37.55141304295563Q23.0484410546875,37.51202304295563,23.0623210546875,37.473643042955636Q23.076201054687502,37.43525304295564,23.0931610546875,37.39812304295563Q23.1101210546875,37.360993042955634,23.1300510546875,37.32537304295563Q23.1499810546875,37.28975304295563,23.1727510546875,37.255873042955635Q23.1955110546875,37.22199304295563,23.2209710546875,37.190083042955635Q23.2464210546875,37.158163042955636,23.2743910546875,37.128433042955635Q23.302361054687502,37.098703042955634,23.3326510546875,37.071353042955636Q23.3629510546875,37.04400304295563,23.3953810546875,37.019213042955634Q23.4278110546875,36.99442304295563,23.4621510546875,36.97235304295563Q23.4964910546875,36.95028304295563,23.5325110546875,36.93109304295563Q23.5685410546875,36.91189304295563,23.6060110546875,36.89570304295563Q23.6434710546875,36.87950304295563,23.6821410546875,36.86642304295563Q23.7208010546875,36.85333304295563,23.7604010546875,36.843443042955634Q23.800011054687502,36.833553042955636,23.8402810546875,36.826923042955634Q23.8805610546875,36.82028304295563,23.9212410546875,36.816963042955635Q23.9619310546875,36.81363304295563,24.0027510546875,36.81363304295563Q24.0435610546875,36.81363304295563,24.0842510546875,36.816963042955635Q24.1249310546875,36.82028304295563,24.1652110546875,36.826923042955634Q24.2054810546875,36.833553042955636,24.2450810546875,36.843443042955634Q24.2846910546875,36.85333304295563,24.3233510546875,36.86642304295563Q24.3620110546875,36.87950304295563,24.3994810546875,36.89570304295563Q24.436951054687498,36.91189304295563,24.4729810546875,36.93109304295563Q24.509001054687502,36.95028304295563,24.543341054687502,36.97235304295563Q24.577681054687503,36.99442304295563,24.6101110546875,37.019213042955634Q24.6425410546875,37.04400304295563,24.672841054687503,37.071353042955636Q24.7031310546875,37.098703042955634,24.7311010546875,37.128433042955635Q24.7590710546875,37.158163042955636,24.784521054687502,37.190083042955635Q24.809981054687498,37.22199304295563,24.8327410546875,37.255873042955635Q24.8555110546875,37.28975304295563,24.8754410546875,37.32537304295563Q24.8953710546875,37.360993042955634,24.9123310546875,37.39812304295563Q24.9292910546875,37.43525304295564,24.9431710546875,37.473643042955636Q24.9570510546875,37.51202304295563,24.9677510546875,37.55141304295563L30.5887310546875,58.23780304295563Z" fill="#111827" fill-opacity="1"/></g></svg>