<svg xmlns="http://www.w3.org/2000/svg" xmlns:xlink="http://www.w3.org/1999/xlink" fill="none" version="1.1" width="18" height="18" viewBox="0 0 18 18"><defs><clipPath id="master_svg0_227_0909"><rect x="0" y="0" width="18" height="18" rx="0"/></clipPath></defs><g clip-path="url(#master_svg0_227_0909)"><g transform="matrix(1,0,0,-1,0,36)"><g><path d="M4.71094,29.25Q5.30859,29.2852,5.48438,29.7773Q5.69531,30.2695,5.30859,30.6914L4.92586,31.0741L4.21875,31.7812Q4.57994,32.1424,4.97676,32.4375Q6.66566,33.6931,9,33.75Q11.8828,33.6797,13.7812,31.7812Q15.6797,29.8828,15.75,27Q15.6797,24.11719,13.7812,22.21875Q11.8828,20.32031,9,20.25Q6.82031,20.28516,5.13281,21.44531Q4.74609,21.72656,4.28906,21.65625Q3.86719,21.55078,3.58594,21.16406Q3.30469,20.77734,3.375,20.35547Q3.48047,19.89844,3.86719,19.61719Q6.08203,18.0351562,9,18Q11.5312,18.0351562,13.5352,19.23047Q15.5742,20.42578,16.7695,22.46484Q17.9648,24.46875,18,27Q17.9648,29.5312,16.7695,31.5352Q15.5742,33.5742,13.5352,34.7695Q11.5312,35.9648,9,36Q7.13672,36,5.48438,35.2969Q3.86719,34.5938,2.63672,33.3633L1.92961,34.0704L1.44141,34.5586Q1.01953,34.9453,0.527344,34.7344Q0.0351562,34.5586,0,33.9609L0,30.0938Q0.0703125,29.3203,0.84375,29.25L4.71094,29.25ZM1,30.25L4.33579,30.25L2.80454,31.7812L3.51164,32.4884Q5.69292,34.6696,8.97562,34.749700000000004L9,34.750299999999996L9.02438,34.749700000000004Q12.3071,34.6696,14.4884,32.4884Q16.6696,30.3071,16.7497,27.02438L16.7503,27L16.7497,26.97562Q16.6696,23.69292,14.4884,21.51164Q12.3071,19.33036,9.02438,19.2503L9.00413,19.2498L8.98387,19.25013Q6.50245,19.29015,4.56628,20.62127L4.55536,20.62878L4.54464,20.63658Q4.51421,20.6587,4.48498,20.6658Q4.43942,20.63742,4.39467,20.57589Q4.37338,20.54662,4.36569,20.53217Q4.39379,20.4707,4.45536,20.42592Q6.40303,19.03478,8.99908,19.00009Q11.2543,19.03437,13.0229,20.08929Q14.8434,21.15655,15.9068,22.97056Q16.9654,24.74528,16.9999,27Q16.9654,29.2547,15.9107,31.0229Q14.8434,32.8434,13.0294,33.906800000000004Q11.2493,34.9687,8.98611,35.0001Q7.34064,35,5.87593,34.3767Q4.44004,33.7524,3.34383,32.6562L2.63672,31.9491L1.92961,32.6562L1,33.5858L1,30.25ZM12.1289,25.06641L9.84375,27.35156L9.84375,30.6562Q9.77344,31.4297,9,31.5Q8.22656,31.4297,8.15625,30.6562L8.15625,27Q8.15625,26.64844,8.40234,26.402340000000002L10.9336,23.87109Q11.5312,23.37891,12.1289,23.87109Q12.6211,24.46875,12.1289,25.06641Z" fill-rule="evenodd" fill="#08254C" fill-opacity="1"/></g></g></g></svg>