<svg xmlns="http://www.w3.org/2000/svg" xmlns:xlink="http://www.w3.org/1999/xlink" fill="none" version="1.1" width="12" height="16" viewBox="0 0 12 16"><defs><clipPath id="master_svg0_227_0916"><rect x="0" y="0" width="12" height="16" rx="0"/></clipPath></defs><g clip-path="url(#master_svg0_227_0916)"><g transform="matrix(1,0,0,-1,0,32.6875)"><g><path d="M0.75,16.34375Q0.0625,16.40625,0,17.09375L0,30.84375Q0.03125,31.46875,0.4375,31.90625Q0.875,32.31255,1.5,32.34375L10.5,32.34375Q11.125,32.31255,11.5625,31.90625Q11.9688,31.46875,12,30.84375L12,17.09375Q11.9375,16.40625,11.25,16.34375Q11,16.34375,10.8125,16.46875L6,19.84375L1.1875,16.46875Q1,16.34375,0.75,16.34375ZM1.14585,31.197850000000003Q1.01653,31.041150000000002,1,30.814149999999998L1,17.55866L6,21.06515L11,17.55866L11,30.814149999999998Q10.9835,31.041150000000002,10.8541,31.197850000000003Q10.6974,31.32725,10.4704,31.34375L1.52959,31.34375Q1.30256,31.32725,1.14585,31.197850000000003Z" fill-rule="evenodd" fill="#08254C" fill-opacity="1"/></g></g></g></svg>