<svg xmlns="http://www.w3.org/2000/svg" xmlns:xlink="http://www.w3.org/1999/xlink" fill="none" version="1.1" width="22.5" height="18" viewBox="0 0 22.5 18"><defs><clipPath id="master_svg0_227_0765"><rect x="0" y="0" width="22.5" height="18" rx="0"/></clipPath></defs><g clip-path="url(#master_svg0_227_0765)"><g transform="matrix(1,0,0,-1,0,36)"><g><path d="M7.475,23.625Q10.6375,23.69531,12.7578,25.45312Q14.8781,27.17578,14.95,29.8125Q14.8781,32.4492,12.7578,34.1719Q10.6375,35.9297,7.475,36Q4.3125,35.9297,2.19219,34.1719Q0.071875,32.4492,0,29.8125Q0.0359375,27.73828,1.4375,26.191409999999998Q1.22188,25.66406,0.898438,25.3125Q0.646875,24.99609,0.43125,24.82031Q0.323438,24.71484,0.2875,24.67969Q0.251563,24.64453,0.251563,24.64453L0.215625,24.64453Q-0.071875,24.39844,0.0359375,24.01172Q0.179688,23.66016,0.575,23.625Q1.79688,23.66016,2.80312,24.04688Q3.30625,24.25781,3.70156,24.46875Q5.39063,23.66016,7.475,23.625ZM16.1,29.8125Q15.9922,26.78906,13.8,24.82031Q11.5719,22.85156,8.3375,22.53516Q9.02031,20.53125,10.9609,19.30078Q12.9016,18.0351562,15.525,18Q17.6094,18.0351562,19.2984,18.84375Q19.6938,18.632812,20.1969,18.421875Q21.2031,18.0351562,22.425,18Q22.8203,18.0351562,22.9641,18.386719Q23.0719,18.773438,22.7484,19.01953L22.7484,19.05469Q22.7125,19.05469,22.7125,19.05469Q22.6766,19.08984,22.5688,19.19531Q22.3531,19.37109,22.1016,19.6875Q21.7781,20.07422,21.5625,20.56641Q22.9641,22.11328,23,24.1875Q22.9281,26.683590000000002,20.9875,28.4063Q19.0469,30.1289,16.0641,30.375Q16.1,30.0938,16.1,29.8125Z" fill="#FFFFFF" fill-opacity="1" style="mix-blend-mode:passthrough"/></g></g></g></svg>