<svg xmlns="http://www.w3.org/2000/svg" xmlns:xlink="http://www.w3.org/1999/xlink" fill="none" version="1.1" width="12.25" height="14" viewBox="0 0 12.25 14"><defs><clipPath id="master_svg0_227_1012"><rect x="0" y="0" width="12.25" height="14" rx="0"/></clipPath></defs><g clip-path="url(#master_svg0_227_1012)"><g transform="matrix(1,0,0,-1,0,28.4375)"><g><path d="M10.5,19.03125L5.25,19.03125L10.5,19.03125L5.25,19.03125Q4.83984,19.05859,4.8125,19.46875L4.8125,26.46875Q4.83984,26.87895,5.25,26.90625L9.07812,26.90625L10.9375,25.04685L10.9375,19.46875Q10.9102,19.05859,10.5,19.03125ZM5.25,17.71875L10.5,17.71875L5.25,17.71875L10.5,17.71875Q11.2383,17.74609,11.7305,18.23828Q12.2227,18.73047,12.25,19.46875L12.25,25.04685Q12.25,25.59375,11.8672,25.97655L10.0078,27.83595Q9.625,28.21875,9.07812,28.21875L5.25,28.21875Q4.51172,28.19145,4.01953,27.69925Q3.52734,27.207050000000002,3.5,26.46875L3.5,19.46875Q3.52734,18.73047,4.01953,18.23828Q4.51172,17.74609,5.25,17.71875ZM1.75,24.71875Q1.01172,24.69145,0.519531,24.19922Q0.0273438,23.70703,0,22.96875L0,15.96875Q0.0273438,15.23047,0.519531,14.738281Q1.01172,14.2460938,1.75,14.21875L7,14.21875Q7.73828,14.2460938,8.23047,14.738281Q8.72266,15.23047,8.75,15.96875L8.75,16.84375L7.4375,16.84375L7.4375,15.96875Q7.41016,15.55859,7,15.53125L1.75,15.53125Q1.33984,15.55859,1.3125,15.96875L1.3125,22.96875Q1.33984,23.378909999999998,1.75,23.40625L2.625,23.40625L2.625,24.71875L1.75,24.71875Z" fill="#4B5563" fill-opacity="1" style="mix-blend-mode:passthrough"/></g></g></g></svg>