<svg xmlns="http://www.w3.org/2000/svg" xmlns:xlink="http://www.w3.org/1999/xlink" fill="none" version="1.1" width="18" height="16" viewBox="0 0 18 16"><defs><clipPath id="master_svg0_227_0813"><rect x="0" y="0" width="18" height="16" rx="0"/></clipPath></defs><g clip-path="url(#master_svg0_227_0813)"><g transform="matrix(1,0,0,-1,0,30.6875)"><g><path d="M9.65625,27.03125Q10.2188,27.40625,10.25,28.09375Q10.25,28.62495,9.875,28.96875Q9.53125,29.34375,9,29.34375Q8.46875,29.34375,8.125,28.96875Q7.75,28.62495,7.75,28.09375Q7.78125,27.37495,8.34375,27.03125L6.5625,23.4375Q6.3125,23.03125,5.875,22.90625Q5.4375,22.8125,5.03125,23.125L2.25,25.34375Q2.5,25.65625,2.5,26.09375Q2.5,26.62495,2.125,26.96875Q1.78125,27.34375,1.25,27.34375Q0.71875,27.34375,0.375,26.96875Q0,26.62495,0,26.09375Q0,25.56255,0.375,25.21875Q0.71875,24.84375,1.25,24.84375Q1.28125,24.84375,1.28125,24.84375L2.6875,17Q2.84375,16.25,3.375,15.8125Q3.9375,15.34375,4.65625,15.34375L13.3438,15.34375Q14.0625,15.34375,14.625,15.8125Q15.1562,16.25,15.3125,17L16.7188,24.84375L16.75,24.84375Q17.2812,24.84375,17.625,25.21875Q18,25.56255,18,26.09375Q18,26.62495,17.625,26.96875Q17.2812,27.34375,16.75,27.34375Q16.2188,27.34375,15.875,26.96875Q15.5,26.62495,15.5,26.09375Q15.5,25.65625,15.75,25.34375L12.9688,23.125Q12.5625,22.8125,12.125,22.90625Q11.6875,23.03125,11.4375,23.4375L9.65625,27.03125Z" fill="#163D57" fill-opacity="1" style="mix-blend-mode:passthrough"/></g></g></g></svg>