<svg xmlns="http://www.w3.org/2000/svg" xmlns:xlink="http://www.w3.org/1999/xlink" fill="none" version="1.1" width="10.5" height="14" viewBox="0 0 10.5 14"><defs><clipPath id="master_svg0_243_1741"><rect x="0" y="0" width="10.5" height="14" rx="0"/></clipPath></defs><g clip-path="url(#master_svg0_243_1741)"><g transform="matrix(1,0,0,-1,0,28.42486572265625)"><g><path d="M0,26.893632861328125Q0.0273438,27.440532861328123,0.382812,27.823332861328126Q0.765625,28.178732861328125,1.3125,28.206132861328125L1.3125,26.893632861328125L1.3125,16.147532861328123L4.86719,18.663152861328125Q5.25,18.909242861328124,5.63281,18.663152861328125L9.1875,16.147532861328123L9.1875,26.893632861328125L1.3125,26.893632861328125L1.3125,28.206132861328125L9.1875,28.206132861328125Q9.73438,28.178732861328125,10.1172,27.823332861328126Q10.4727,27.440532861328123,10.5,26.893632861328125L10.5,14.862372861328126Q10.5,14.479559861328125,10.1445,14.288153961328126Q9.78906,14.124091461328126,9.46094,14.315497861328126L5.25,17.323312861328127L1.03906,14.315497861328126Q0.710938,14.124091461328126,0.355469,14.288153961328126Q0.0273438,14.479559861328125,0,14.862372861328126L0,26.893632861328125Z" fill="#E2E8F0" fill-opacity="1" style="mix-blend-mode:passthrough"/></g></g></g></svg>