<svg xmlns="http://www.w3.org/2000/svg" xmlns:xlink="http://www.w3.org/1999/xlink" fill="none" version="1.1" width="14" height="14" viewBox="0 0 14 14"><defs><clipPath id="master_svg0_243_1727"><rect x="0" y="0" width="14" height="14" rx="0"/></clipPath></defs><g clip-path="url(#master_svg0_243_1727)"><g transform="matrix(1,0,0,-1,0,28.437469482421875)"><g><path d="M12.1535,26.605434741210935L12.4843,26.277334741210936L12.1535,26.605434741210935L12.4843,26.277334741210936Q12.8701,25.81253474121094,12.4843,25.34763474121094L11.685,24.55463474121094L10.4173,25.81253474121094L11.2165,26.605434741210935Q11.685,26.98823474121094,12.1535,26.605434741210935ZM5.7874,21.218734741210938L9.48032,24.882834741210935L5.7874,21.218734741210938L9.48032,24.882834741210935L10.748,23.624984741210938L7.05512,19.96092474121094Q6.91732,19.824204741210938,6.75197,19.796854741210936L5.15354,19.332014741210937L5.62205,20.917954741210938Q5.64961,21.082014741210937,5.7874,21.218734741210938ZM10.2795,27.53513474121094L4.85039,22.14842474121094L10.2795,27.53513474121094L4.85039,22.14842474121094Q4.49213,21.76561474121094,4.35433,21.300764741210937L3.55512,18.56639474121094Q3.44488,18.183574741210936,3.72047,17.91014474121094Q3.99606,17.664044741210937,4.38189,17.746074741210936L7.1378,18.539044741210937Q7.63386,18.675764741210937,7.99213,19.031234741210938L13.4213,24.417934741210935Q14,25.01953474121094,14,25.81253474121094Q14,26.605434741210935,13.4213,27.20703474121094L13.0906,27.53513474121094Q12.4843,28.109334741210937,11.685,28.109334741210937Q10.8858,28.109334741210937,10.2795,27.53513474121094ZM2.4252,26.468734741210938Q1.40551,26.441434741210937,0.716535,25.757834741210935Q0.0275591,25.074234741210937,0,24.062484741210938L0,16.624984741210938Q0.0275591,15.613264741210937,0.716535,14.929672741210938Q1.40551,14.246078541210938,2.4252,14.218734741210938L9.92126,14.218734741210938Q10.9409,14.246078541210938,11.6299,14.929672741210938Q12.3189,15.613264741210937,12.3465,16.624984741210938L12.3465,19.687484741210938Q12.2913,20.289044741210937,11.685,20.343734741210938Q11.0787,20.289044741210937,11.0236,19.687484741210938L11.0236,16.624984741210938Q11.0236,16.16014474121094,10.6929,15.859354741210938Q10.3898,15.531234741210938,9.92126,15.531234741210938L2.4252,15.531234741210938Q1.95669,15.531234741210938,1.65354,15.859354741210938Q1.32283,16.16014474121094,1.32283,16.624984741210938L1.32283,24.062484741210938Q1.32283,24.527334741210936,1.65354,24.82813474121094Q1.95669,25.156234741210938,2.4252,25.156234741210938L5.51181,25.156234741210938Q6.11811,25.210934741210938,6.17323,25.81253474121094Q6.11811,26.414034741210937,5.51181,26.468734741210938L2.4252,26.468734741210938Z" fill="#E2E8F0" fill-opacity="1" style="mix-blend-mode:passthrough"/></g></g></g></svg>