<svg xmlns="http://www.w3.org/2000/svg" xmlns:xlink="http://www.w3.org/1999/xlink" fill="none" version="1.1" width="16" height="16" viewBox="0 0 16 16"><defs><clipPath id="master_svg0_250_3311"><rect x="0" y="0" width="16" height="16" rx="0"/></clipPath></defs><g clip-path="url(#master_svg0_250_3311)"><g><g><path d="M0,0.7936C0,0.3552,0.397333,0,0.887999,0L11.5555,0L16,4L16,15.1944C16.0034,15.6362,15.6082,15.9969,15.1173,16L0.882666,16C0.396937,15.997,0.00387361,15.6436,0,15.2064L0,0.7936ZM11.6667,1.44536L14.2829,3.8L11.6667,3.8L11.6667,1.44536ZM10.6667,4.8L13.2222,4.8L14.2222,4.8L14.2222,14.4L1.77778,14.4L1.77778,2.6L1.77778,1.6L10.6667,1.6L10.6667,4.8ZM8.88888,4.8L8.88888,7.2L11.5555,7.2L11.5555,8.8L8.88888,8.8L8.88888,11.2L7.1111,11.2L7.1111,9.8L7.1111,8.8L4.44444,8.8L4.44444,7.2L7.1111,7.2L7.1111,4.8L8.88888,4.8Z" fill-rule="evenodd" fill="#E2E8F0" fill-opacity="1"/></g></g></g></svg>