<svg xmlns="http://www.w3.org/2000/svg" xmlns:xlink="http://www.w3.org/1999/xlink" fill="none" version="1.1" width="18" height="18" viewBox="0 0 18 18"><defs><clipPath id="master_svg0_227_0784"><rect x="0" y="0" width="18" height="18" rx="0"/></clipPath></defs><g clip-path="url(#master_svg0_227_0784)"><g transform="matrix(1,0,0,-1,0,36)"><g><path d="M13.2891,33.0268L17.6133,28.0848L13.2891,33.0268L17.6133,28.0848Q18,27.64286,18,27Q18,26.35714,17.6133,25.91518L13.2891,20.97321Q12.9375,20.57143,12.4453,20.57143Q11.9531,20.57143,11.6016,20.97321Q11.25,21.375,11.25,21.9375L11.25,24.42857L6.75,24.42857Q6.25781,24.42857,5.94141,24.79018Q5.625,25.15179,5.625,25.71429L5.625,28.2857Q5.625,28.8482,5.94141,29.2098Q6.25781,29.5714,6.75,29.5714L11.25,29.5714L11.25,32.0625Q11.25,32.625,11.6016,33.0268Q11.9531,33.4286,12.4453,33.4286Q12.9375,33.4286,13.2891,33.0268ZM5.625,33.4286L3.375,33.4286L5.625,33.4286L3.375,33.4286Q2.88281,33.4286,2.56641,33.067Q2.25,32.7054,2.25,32.1429L2.25,21.85714Q2.25,21.29464,2.56641,20.93304Q2.88281,20.57143,3.375,20.57143L5.625,20.57143Q6.11719,20.57143,6.43359,20.20982Q6.75,19.84821,6.75,19.28571Q6.75,18.723214,6.43359,18.361607Q6.11719,18,5.625,18L3.375,18Q1.93359,18.0401786,0.984375,19.125Q0.0351562,20.20982,0,21.85714L0,32.1429Q0.0351562,33.7902,0.984375,34.875Q1.93359,35.9598,3.375,36L5.625,36Q6.11719,36,6.43359,35.638400000000004Q6.75,35.2768,6.75,34.7143Q6.75,34.1518,6.43359,33.7902Q6.11719,33.4286,5.625,33.4286Z" fill="#D1D5DB" fill-opacity="1" style="mix-blend-mode:passthrough"/></g></g></g></svg>