<svg xmlns="http://www.w3.org/2000/svg" xmlns:xlink="http://www.w3.org/1999/xlink" fill="none" version="1.1" width="11" height="16" viewBox="0 0 11 16"><defs><clipPath id="master_svg0_227_0922"><rect x="0" y="0" width="11" height="16" rx="0"/></clipPath></defs><g clip-path="url(#master_svg0_227_0922)"><g transform="matrix(1,0,0,-1,0,32.6875)"><g><path d="M5.5,32.34375Q4.21875,32.31255,3.375,31.46875Q2.53125,30.62495,2.5,29.34375L2.5,24.34375Q2.53125,23.0625,3.375,22.21875Q4.21875,21.375,5.5,21.34375Q6.78125,21.375,7.625,22.21875Q8.46875,23.0625,8.5,24.34375L8.5,29.34375Q8.46875,30.62495,7.625,31.46875Q6.78125,32.31255,5.5,32.34375ZM1.5,25.59375Q1.4375,26.28125,0.75,26.34375Q0.0625,26.28125,0,25.59375L0,24.34375Q0.03125,22.21875,1.375,20.71875Q2.6875,19.21875,4.75,18.90625L4.75,17.84375L3.25,17.84375Q2.5625,17.78125,2.5,17.09375Q2.5625,16.40625,3.25,16.34375L5.5,16.34375L7.75,16.34375Q8.4375,16.40625,8.5,17.09375Q8.4375,17.78125,7.75,17.84375L6.25,17.84375L6.25,18.90625Q8.3125,19.21875,9.625,20.71875Q10.9688,22.21875,11,24.34375L11,25.59375Q10.9375,26.28125,10.25,26.34375Q9.5625,26.28125,9.5,25.59375L9.5,24.34375Q9.46875,22.65625,8.34375,21.5Q7.1875,20.375,5.5,20.34375Q3.8125,20.375,2.65625,21.5Q1.53125,22.65625,1.5,24.34375L1.5,25.59375Z" fill="#6B7280" fill-opacity="1" style="mix-blend-mode:passthrough"/></g></g></g></svg>