<svg xmlns="http://www.w3.org/2000/svg" xmlns:xlink="http://www.w3.org/1999/xlink" fill="none" version="1.1" width="25.049638967780652" height="26.233889916028375" viewBox="0 0 25.049638967780652 26.233889916028375"><defs><clipPath id="master_svg0_181_0373"><rect x="0" y="9.17722225189209" width="16" height="20.82234764099121" rx="0"/></clipPath></defs><g transform="matrix(0.8191519975662231,-0.5735763907432556,0.5735763907432556,0.8191519975662231,-5.2638380162889575,1.6596823121454918)" clip-path="url(#master_svg0_181_0373)"><g transform="matrix(1,0,0,-1,0,58.29243278503418)"><g><path d="" fill="#E8EEFF" fill-opacity="0" style="mix-blend-mode:passthrough"/><path d="M9.53821378704071,47.865116392517095Q6.942233787040711,47.81511639251709,4.87109378704071,46.53311639251709Q2.7520837870407107,45.28641639251709,1.5066357870407106,43.09891639251709Q0.30162178704071047,40.952416392517094,0.2603127870407104,38.26367639251709L0.2601947870407104,38.25599639251709L0.2603127870407104,38.24831639251709Q0.3016337870407104,35.55877639251709,1.5452437870407105,33.41431639251709Q2.7512537870407106,31.22605639251709,4.87116378704071,29.97884739251709Q6.954713787040711,28.68916239251709,9.56938378704071,28.64628339251709L9.57903378704071,28.64612539251709L9.588683787040711,28.64633939251709Q13.45245378704071,28.73218739251709,16.03525378704071,31.35769639251709L16.04695378704071,31.36959639251709L16.05785378704071,31.38224639251709Q16.58675378704071,31.99691639251709,16.247053787040713,32.69885639251709Q15.900253787040711,33.41541639251709,15.08485378704071,33.34521639251709L15.051953787040711,33.34238639251709L15.01965378704071,33.33524639251709Q14.52495378704071,33.22572639251709,13.95385378704071,33.22505639251709Q11.249253787040711,33.30295639251709,9.42513378704071,35.18756639251709Q7.63390378704071,37.03820639251709,7.558343787040711,39.88921639251709Q7.55983378704071,41.78411639251709,8.435433787040711,43.29181639251709Q9.350143787040711,44.80371639251709,10.817053787040711,45.675216392517086Q11.50195378704071,46.09971639251709,11.37015378704071,46.91671639251709L11.36525378704071,46.947016392517085L11.356753787040711,46.97651639251709Q11.15145378704071,47.68341639251709,10.37096378704071,47.81781639251709L10.35710378704071,47.82021639251709L10.34313378704071,47.82181639251709Q9.978333787040711,47.86371639251709,9.57758378704071,47.865716392517086L9.57758378704071,47.86581639251709L9.53821378704071,47.86581639251709L9.53821378704071,47.865116392517095ZM9.57590378704071,46.865716392517086Q7.239953787040711,46.825016392517085,5.3929937870407105,45.68011639251709L5.387943787040711,45.676916392517086L5.38282378704071,45.673916392517086Q3.4904637870407105,44.56221639251709,2.3756537870407106,42.60411639251709Q1.2993127870407104,40.68681639251709,1.2603157870407105,38.25599639251709Q1.2993147870407105,35.82904639251709,2.4128837870407107,33.91153639251709L2.4157737870407106,33.90655639251709L2.4185437870407105,33.90151639251709Q3.4938137870407107,31.94782639251709,5.38282378704071,30.83805639251709L5.387943787040711,30.83504639251709L5.3929937870407105,30.83191639251709Q7.2400537870407105,29.68691839251709,9.57613378704071,29.64631239251709Q13.01705378704071,29.725943392517088,15.30855378704071,32.04491639251709Q15.39835378704071,32.15678639251709,15.346853787040711,32.263236392517086Q15.30465378704071,32.35057639251709,15.195153787040711,32.35005639251709Q14.608353787040711,32.22505639251709,13.94685378704071,32.22505639251709L13.939853787040711,32.22505639251709L13.932953787040711,32.22525639251709Q10.816453787040711,32.31227639251709,8.70658378704071,34.49208639251709Q6.642263787040711,36.62487639251709,6.55851378704071,39.86981639251709L6.558343787040711,39.87631639251709L6.558343787040711,39.88271639251709Q6.558343787040711,42.05081639251709,7.570683787040711,43.79401639251709Q8.62412378704071,45.535616392517085,10.30628378704071,46.53491639251709Q10.39672378704071,46.59101639251709,10.38717378704071,46.72181639251709Q10.347703787040711,46.80381639251709,10.21318378704071,46.83021639251709Q9.911273787040711,46.86391639251709,9.57590378704071,46.865716392517086Z" fill-rule="evenodd" fill="#FFFFFF" fill-opacity="0.800000011920929"/></g></g></g></svg>