<svg xmlns="http://www.w3.org/2000/svg" xmlns:xlink="http://www.w3.org/1999/xlink" fill="none" version="1.1" width="14" height="19" viewBox="0 0 14 19"><defs><clipPath id="master_svg0_227_0744"><rect x="0" y="0" width="14" height="19" rx="0"/></clipPath></defs><g clip-path="url(#master_svg0_227_0744)"><g transform="matrix(1,0,0,-1,0,38)"><g><path d="M0,36.2188L0,19.890625L0,36.2188L0,19.890625Q0.0729167,19.0742188,0.875,19Q1.16667,19,1.38542,19.148438L7,23.15625L12.6146,19.148438Q12.8333,19,13.125,19Q13.9271,19.0742188,14,19.890625L14,36.2188Q13.9635,36.960899999999995,13.4896,37.4805Q12.9792,37.962900000000005,12.25,38L1.75,38Q1.02083,37.962900000000005,0.510417,37.4805Q0.0364583,36.960899999999995,0,36.2188Z" fill="#D1D5DB" fill-opacity="1" style="mix-blend-mode:passthrough"/></g></g></g></svg>