<svg xmlns="http://www.w3.org/2000/svg" xmlns:xlink="http://www.w3.org/1999/xlink" fill="none" version="1.1" width="18" height="16" viewBox="0 0 18 16"><defs><clipPath id="master_svg0_250_3317"><rect x="0" y="0" width="18" height="16" rx="0"/></clipPath></defs><g clip-path="url(#master_svg0_250_3317)"><rect x="0" y="0" width="18" height="16" rx="0" fill="#FFFFFF" fill-opacity="1"/><g><g><path d="M0,0.7936C0,0.3552,0.446999,0,0.998999,0L13,0L18,4L18,15.1944C18.0039,15.6362,17.5593,15.9969,17.007,16L0.992999,16C0.446555,15.997,0.00435781,15.6436,0,15.2064L0,0.7936ZM13,3.8L13,1.28063L16.1492,3.8L13,3.8ZM0.999997,1.52067L0.999951,15L0.999997,15L0.999997,1.52067ZM12,4.8L15,4.8L16,4.8L16,14.4L2,14.4L2,2.6L2,1.6L12,1.6L12,4.8ZM9.99999,4.8L9.99999,7.2L13,7.2L13,8.8L9.99999,8.8L9.99999,11.2L7.99999,11.2L7.99999,9.8L7.99999,8.8L4.99999,8.8L4.99999,7.2L7.99999,7.2L7.99999,4.8L9.99999,4.8Z" fill-rule="evenodd" fill="#08254C" fill-opacity="1"/></g></g></g></svg>