<svg xmlns="http://www.w3.org/2000/svg" xmlns:xlink="http://www.w3.org/1999/xlink" fill="none" version="1.1" width="18" height="18" viewBox="0 0 18 18"><defs><clipPath id="master_svg0_227_0774"><rect x="0" y="0" width="18" height="18" rx="0"/></clipPath></defs><g clip-path="url(#master_svg0_227_0774)"><g transform="matrix(1,0,0,-1,0,36)"><g><path d="M17.9573,30.1289Q18.1066,29.636699999999998,17.7334,29.2852L16.0912,27.878909999999998Q16.1659,27.45703,16.1659,27Q16.1659,26.54297,16.0912,26.121090000000002L17.7334,24.71484Q18.1066,24.36328,17.9573,23.87109Q17.6961,23.23828,17.3602,22.64062L17.1736,22.35938Q16.8004,21.79688,16.3525,21.26953Q15.9793,20.88281,15.4568,21.02344L13.3667,21.65625Q12.6203,21.09375,11.7245,20.77734L11.2767,18.738281Q11.1274,18.246094,10.5675,18.140625Q9.82109,18,9,18Q8.17891,18,7.39514,18.140625Q6.87263,18.246094,6.72334,18.738281L6.27548,20.77734Q5.37974,21.09375,4.63329,21.65625L2.54325,21.02344Q2.02073,20.88281,1.64751,21.26953Q1.16232,21.79688,0.826422,22.35938L0.63981,22.64062Q0.30391,23.23828,0.042654,23.83594Q-0.106635,24.36328,0.266588,24.71484L1.90877,26.08594Q1.83412,26.54297,1.83412,27Q1.83412,27.45703,1.90877,27.878909999999998L0.266588,29.2852Q-0.106635,29.636699999999998,0.042654,30.1289Q0.30391,30.761699999999998,0.63981,31.3594L0.826422,31.6406Q1.16232,32.2031,1.64751,32.7305Q2.02073,33.1172,2.54325,32.9766L4.63329,32.3438Q5.37974,32.9063,6.27548,33.2578L6.72334,35.261700000000005Q6.87263,35.7539,7.43246,35.8594Q8.17891,36,9,36Q9.82109,36,10.6049,35.8594Q11.1274,35.7539,11.2767,35.261700000000005L11.7245,33.2578Q12.6203,32.9063,13.3667,32.3438L15.4568,32.9766Q15.9793,33.1172,16.3525,32.7305Q16.8377,32.2031,17.2109,31.6406L17.3602,31.3594Q17.6961,30.761699999999998,17.9573,30.1289ZM9,24.1875Q10.6795,24.22266,11.5752,25.59375Q12.3963,27,11.5752,28.4062Q10.6795,29.7773,9,29.8125Q7.3205,29.7773,6.42476,28.4062Q5.60367,27,6.42476,25.59375Q7.3205,24.22266,9,24.1875Z" fill="#D1D5DB" fill-opacity="1" style="mix-blend-mode:passthrough"/></g></g></g></svg>