<svg xmlns="http://www.w3.org/2000/svg" xmlns:xlink="http://www.w3.org/1999/xlink" fill="none" version="1.1" width="14" height="14" viewBox="0 0 14 14"><defs><clipPath id="master_svg0_71_0584"><rect x="0" y="0" width="14" height="14" rx="0"/></clipPath></defs><g clip-path="url(#master_svg0_71_0584)"><g transform="matrix(1,0,0,-1,0,28.6015625)"><g><path d="M7,14.30078125Q8.91406,14.32812505,10.5,15.23046925Q12.0859,16.16016125,13.0703,17.80078125Q14,19.46875125,14,21.30078125Q14,23.13281125,13.0703,24.80078125Q12.0859,26.44138125,10.5,27.37108125Q8.91406,28.27348125,7,28.30078125Q5.08594,28.27348125,3.5,27.37108125Q1.91406,26.44138125,0.929688,24.80078125Q0,23.13281125,0,21.30078125Q0,19.46875125,0.929688,17.80078125Q1.91406,16.16016125,3.5,15.23046925Q5.08594,14.32812505,7,14.30078125ZM10.0898,22.585941249999998L6.58984,19.08594125L10.0898,22.585941249999998L6.58984,19.08594125Q6.125,18.70312125,5.66016,19.08594125L3.91016,20.83594125Q3.52734,21.30078125,3.91016,21.76562125Q4.375,22.14844125,4.83984,21.76562125L6.125,20.48047125L9.16016,23.515621250000002Q9.625,23.898441249999998,10.0898,23.515621250000002Q10.4727,23.05078125,10.0898,22.585941249999998Z" fill="#FFFFFF" fill-opacity="1" style="mix-blend-mode:passthrough"/></g></g></g></svg>