<svg xmlns="http://www.w3.org/2000/svg" xmlns:xlink="http://www.w3.org/1999/xlink" fill="none" version="1.1" width="12.25" height="14" viewBox="0 0 12.25 14"><defs><clipPath id="master_svg0_31_4514"><rect x="0" y="0" width="12.25" height="14" rx="0"/></clipPath></defs><g clip-path="url(#master_svg0_31_4514)"><g transform="matrix(1,0,0,-1,0,28.6015625)"><g><path d="M5.6875,28.30078125L9.07812,28.30078125L5.6875,28.30078125L9.07812,28.30078125Q9.625,28.30078125,10.0078,27.91798125L11.8672,26.05858125Q12.25,25.67578125,12.25,25.12888125L12.25,19.11328125Q12.2227,18.56640125,11.8672,18.18359125Q11.4844,17.82812125,10.9375,17.80078125L5.6875,17.80078125Q5.14062,17.82812125,4.75781,18.18359125Q4.40234,18.56640125,4.375,19.11328125L4.375,26.98828125Q4.40234,27.53518125,4.75781,27.91798125Q5.14062,28.27348125,5.6875,28.30078125ZM1.3125,24.80078125L3.5,24.80078125L1.3125,24.80078125L3.5,24.80078125L3.5,23.05078125L1.75,23.05078125L1.75,16.05078125L7,16.05078125L7,16.92578125L8.75,16.92578125L8.75,15.61328125Q8.72266,15.06640625,8.36719,14.68359325Q7.98438,14.32812505,7.4375,14.30078125L1.3125,14.30078125Q0.765625,14.32812505,0.382812,14.68359325Q0.0273438,15.06640625,0,15.61328125L0,23.48828125Q0.0273438,24.03516125,0.382812,24.41798125Q0.765625,24.77348125,1.3125,24.80078125Z" fill="#374151" fill-opacity="1" style="mix-blend-mode:passthrough"/></g></g></g></svg>