<svg xmlns="http://www.w3.org/2000/svg" xmlns:xlink="http://www.w3.org/1999/xlink" fill="none" version="1.1" width="36" height="36" viewBox="0 0 36 36"><defs><clipPath id="master_svg0_153_0465"><rect x="0" y="0" width="36" height="36" rx="0"/></clipPath></defs><g clip-path="url(#master_svg0_153_0465)"><g transform="matrix(1,0,0,-1,0,64.546875)"><g><path d="M3.375,59.2734375Q1.96875,59.2031375,0.984375,58.2890375Q0.0703125,57.3046375,0,55.8984375Q0.0703125,54.2109375,1.33594,53.2265375L16.6641,41.6953175Q18,40.8515575,19.3359,41.6953175L34.6641,53.2265375Q35.9297,54.2109375,36,55.8984375Q35.9297,57.3046375,35.0156,58.2890375Q34.0312,59.2031375,32.625,59.2734375L3.375,59.2734375ZM0,51.3984375L0,36.7734375L0,51.3984375L0,36.7734375Q0.0703125,34.8749975,1.33594,33.6093775Q2.60156,32.34375,4.5,32.2734375L31.5,32.2734375Q33.3984,32.34375,34.6641,33.6093775Q35.9297,34.8749975,36,36.7734375L36,51.3984375L20.6719,39.9374975Q19.4766,39.0234375,18,39.0234375Q16.5234,39.0234375,15.3281,39.9374975L0,51.3984375Z" fill="#3B82F6" fill-opacity="1" style="mix-blend-mode:passthrough"/></g></g></g></svg>