<svg xmlns="http://www.w3.org/2000/svg" xmlns:xlink="http://www.w3.org/1999/xlink" fill="none" version="1.1" width="18" height="18" viewBox="0 0 18 18"><defs><clipPath id="master_svg0_87_3010"><rect x="0" y="0" width="18" height="18" rx="0"/></clipPath></defs><g clip-path="url(#master_svg0_87_3010)"><g transform="matrix(1,0,0,-1,0,36.7734375)"><g><path d="M5.569665625,22.85155875L4.490365625,23.94140875L5.569665625,22.85155875L4.490365625,23.94140875Q4.037755625,24.43358875,4.211835625,25.06640875Q4.385915625,25.55858875,4.629625625,26.26171875L0.939105625,26.26171875Q0.451677625,26.26171875,0.20796462500000001,26.68358875Q-0.0009333750000000002,27.10546875,0.20796462500000001,27.52733875L2.053225625,30.65621875Q2.784365625,31.85151875,4.211835625,31.88671875L7.066765625,31.88671875Q7.206025625,32.09761875,7.310475625,32.27341875Q8.772765625,34.38281875,10.513615625,35.29691875Q12.254415625,36.210918750000005,13.960415625,36.35151875Q15.666415625,36.45701875,16.954615625,36.210918750000005Q17.581315625,36.035118749999995,17.755315625,35.40231875Q17.999015625,34.10151875,17.894615625,32.37891875Q17.755315625,30.65621875,16.850115625,28.898418749999998Q15.944915625,27.140628749999998,13.855915625,25.66405875Q13.681815625,25.55858875,13.472915625,25.41796875L13.472915625,22.53515875Q13.438115625,21.09374875,12.254415625,20.35546875L9.155735625,18.49218775Q8.737945625,18.28124975,8.320145625,18.49218775Q7.902355625,18.73828075,7.902355625,19.23046875L7.902355625,22.99218875Q7.171215625,22.74609875,6.648965625,22.57030875Q6.022275625,22.39452875,5.569665625,22.85155875ZM13.472915625,30.48041875Q14.273715625,30.51561875,14.691515625,31.18361875Q15.039715625,31.88671875,14.691515625,32.58981875Q14.273715625,33.25781875,13.472915625,33.29291875Q12.672215625,33.25781875,12.254415625,32.58981875Q11.906215625,31.88671875,12.254415625,31.18361875Q12.672215625,30.51561875,13.472915625,30.48041875Z" fill="#FFFFFF" fill-opacity="1" style="mix-blend-mode:passthrough"/></g></g></g></svg>