<svg xmlns="http://www.w3.org/2000/svg" xmlns:xlink="http://www.w3.org/1999/xlink" fill="none" version="1.1" width="18" height="16" viewBox="0 0 18 16"><defs><clipPath id="master_svg0_45_0530"><rect x="0" y="0" width="18" height="16" rx="0"/></clipPath></defs><g clip-path="url(#master_svg0_45_0530)"><g transform="matrix(1,0,0,-1,0,30.6875)"><g><path d="M8.985185,29.34375Q7.095335,29.31255,5.608245,28.59375Q4.121155,27.87505,3.005835,26.81255Q1.921495,25.78125,1.208935,24.6875Q0.496369,23.59375,0.15557769999999999,22.71875Q0.0006723000000000007,22.34375,0.15557769999999999,21.96875Q0.496369,21.09375,1.208935,20Q1.921495,18.90625,3.005835,17.875Q4.121155,16.8125,5.608245,16.09375Q7.095335,15.375,8.985185,15.34375Q10.875025,15.375,12.362125,16.09375Q13.849225,16.8125,14.964525,17.875Q16.048825,18.90625,16.761425,20Q17.474025,21.09375,17.845725,21.96875Q18.000725,22.34375,17.845725,22.71875Q17.474025,23.59375,16.761425,24.6875Q16.048825,25.78125,14.964525,26.81255Q13.849225,27.87505,12.362125,28.59375Q10.875025,29.31255,8.985185,29.34375ZM4.523905,22.34375Q4.523905,23.5625,5.112545,24.59375Q5.701185,25.62495,6.754545,26.24995Q7.807905,26.84375,8.985185,26.84375Q10.162425,26.84375,11.215825,26.24995Q12.269225,25.62495,12.857825,24.59375Q13.446425,23.5625,13.446425,22.34375Q13.446425,21.125,12.857825,20.09375Q12.269225,19.0625,11.215825,18.4375Q10.162425,17.84375,8.985185,17.84375Q7.807905,17.84375,6.754545,18.4375Q5.701185,19.0625,5.112545,20.09375Q4.523905,21.125,4.523905,22.34375ZM8.985185,24.34375Q8.954205,23.5,8.396545,22.9375Q7.838885,22.375,7.002395,22.34375Q6.661605,22.34375,6.382775,22.4375Q6.072965,22.5,6.010995,22.21875Q6.010995,21.90625,6.103945,21.5625Q6.475715,20.34375,7.498095,19.75Q8.520465,19.15625,9.759705,19.4375Q10.967925,19.8125,11.556625,20.84375Q12.145225,21.875,11.866425,23.125Q11.587625,24.09375,10.844025,24.6875Q10.069515,25.28125,9.109105,25.34375Q8.830275,25.28125,8.892235,24.96875Q8.985185,24.6875,8.985185,24.34375Z" fill="#9CA3AF" fill-opacity="1" style="mix-blend-mode:passthrough"/></g></g></g></svg>