<svg xmlns="http://www.w3.org/2000/svg" xmlns:xlink="http://www.w3.org/1999/xlink" fill="none" version="1.1" width="16" height="16" viewBox="0 0 16 16"><defs><clipPath id="master_svg0_71_0241"><rect x="0" y="0" width="16" height="16" rx="0"/></clipPath></defs><g clip-path="url(#master_svg0_71_0241)"><g transform="matrix(1,0,0,-1,0,32.500003814697266)"><g><path d="M8.00010841678381,32.15620190734863Q8.23247841678381,32.15620190734863,8.43164841678381,32.06250190734863L14.70545841678381,29.562501907348633Q15.26985841678381,29.343801907348634,15.60175841678381,28.875001907348633Q15.96695841678381,28.40620190734863,15.96695841678381,27.78120190734863Q16.000158416783812,26.187501907348633,15.40255841678381,24.031251907348633Q14.80505841678381,21.875001907348633,13.24495841678381,19.843751907348633Q11.71795841678381,17.781251907348633,8.863178416783809,16.437501907348633Q8.00010841678381,16.062501907348633,7.13703841678381,16.437501907348633Q4.282268416783809,17.781251907348633,2.7552984167838095,19.843751907348633Q1.1951284167838097,21.875001907348633,0.5976214167838096,24.031251907348633Q0.00011051678380966101,26.187501907348633,0.03330551678380966,27.78120190734863Q0.03330551678380966,28.40620190734863,0.39845041678380966,28.875001907348633Q0.7304014167838097,29.343801907348634,1.2947184167838097,29.562501907348633L7.56857841678381,32.06250190734863Q7.767748416783809,32.15620190734863,8.00010841678381,32.15620190734863ZM8.00010841678381,30.062501907348633L8.00010841678381,18.250001907348633L8.00010841678381,30.062501907348633L8.00010841678381,18.250001907348633Q10.25735841678381,19.343751907348633,11.55195841678381,21.031251907348633Q12.81335841678381,22.718751907348633,13.34455841678381,24.500001907348633Q13.84245841678381,26.312501907348633,13.84245841678381,27.750001907348633L8.00010841678381,30.062501907348633Z" fill="#4ADE80" fill-opacity="1" style="mix-blend-mode:passthrough"/></g></g></g></svg>