<svg xmlns="http://www.w3.org/2000/svg" xmlns:xlink="http://www.w3.org/1999/xlink" fill="none" version="1.1" width="30.9375" height="30" viewBox="0 0 30.9375 30"><defs><clipPath id="master_svg0_87_1676"><rect x="0" y="0" width="30.9375" height="30" rx="0"/></clipPath></defs><g clip-path="url(#master_svg0_87_1676)"><g transform="matrix(1,0,0,-1,0,61.2890625)"><g><path d="M6.44531,59.355431249999995Q6.67969,58.593731250000005,6.38672,57.94923125Q6.03516,57.246131250000005,5.27344,57.01173125L3.75,56.48433125L3.75,49.39453125Q3.80859,46.99223125,5.39062,45.41013125Q6.97266,43.82813125,9.375,43.76953125Q11.7773,43.82813125,13.3594,45.41013125Q14.9414,46.99223125,15,49.39453125L15,56.48433125L13.4766,57.01173125Q12.7148,57.246131250000005,12.3633,57.94923125Q12.0703,58.593731250000005,12.3047,59.355431249999995Q12.5391,60.11723125,13.2422,60.468731250000005Q13.8867,60.76173125,14.6484,60.52733125L16.1719,60.058631250000005Q17.3438,59.64843125,18.0469,58.65233125Q18.75,57.71483125,18.75,56.48433125L18.75,49.39453125Q18.6914,45.93753125,16.6406,43.41793125Q14.5312,40.95703125,11.3086,40.19531125Q11.6016,37.67578125,13.418,36.09375125Q15.2344,34.45312125,17.8125,34.39453125Q20.625,34.45312125,22.4414,36.32812125Q24.3164,38.14453125,24.375,40.95703125L24.375,45.11723125Q23.0859,45.64453125,22.3242,46.81643125Q21.5625,47.92973125,21.5625,49.39453125Q21.6211,51.38673125,22.9102,52.73433125Q24.2578,54.02343125,26.25,54.08203125Q28.2422,54.02343125,29.5898,52.73433125Q30.8789,51.38673125,30.9375,49.39453125Q30.9375,47.92973125,30.1758,46.81643125Q29.4141,45.64453125,28.125,45.11723125L28.125,40.95703125Q28.0078,36.56250125,25.0781,33.69141125Q22.207,30.76171925,17.8125,30.64453125Q13.6523,30.76171925,10.7812,33.39844125Q7.91016,36.09375125,7.55859,40.19531125Q4.21875,40.89843125,2.16797,43.41793125Q0.0585938,45.93753125,0,49.39453125L0,56.48433125Q0,57.71483125,0.703125,58.65233125Q1.40625,59.64843125,2.57812,60.058631250000005L4.10156,60.52733125Q4.86328,60.76173125,5.50781,60.468731250000005Q6.21094,60.11723125,6.44531,59.355431249999995ZM26.25,47.51953125Q27.0703,47.51953125,27.5977,48.04683125Q28.125,48.57423125,28.125,49.39453125Q28.125,50.21483125,27.5977,50.74223125Q27.0703,51.26953125,26.25,51.26953125Q25.4297,51.26953125,24.9023,50.74223125Q24.375,50.21483125,24.375,49.39453125Q24.375,48.57423125,24.9023,48.04683125Q25.4297,47.51953125,26.25,47.51953125Z" fill="#2563EB" fill-opacity="1" style="mix-blend-mode:passthrough"/></g></g></g></svg>