<svg xmlns="http://www.w3.org/2000/svg" xmlns:xlink="http://www.w3.org/1999/xlink" fill="none" version="1.1" width="30" height="30" viewBox="0 0 30 30"><defs><clipPath id="master_svg0_87_1636"><rect x="0" y="0" width="30" height="30" rx="0"/></clipPath></defs><g clip-path="url(#master_svg0_87_1636)"><g transform="matrix(1,0,0,-1,0,57.5390625)"><g><path d="M2.8125,39.31643125L13.3594,29.41406225L2.8125,39.31643125L13.3594,29.41406225Q14.0625,28.76953125,15,28.76953125Q15.9375,28.76953125,16.6406,29.41406225L27.1875,39.31643125Q29.9414,41.89453125,30,45.70313125L30,46.05473125Q29.9414,49.218731250000005,28.0078,51.445331249999995Q26.0742,53.730431249999995,23.0273,54.31643125Q20.9766,54.60933125,19.043,54.02343125Q17.168,53.43753125,15.7031,51.97263125L15,51.26953125L14.2969,51.97263125Q12.832,53.43753125,10.957,54.02343125Q9.02344,54.60933125,6.97266,54.31643125Q3.92578,53.730431249999995,1.99219,51.445331249999995Q0.0585938,49.218731250000005,0,46.05473125L0,45.70313125Q0.0585938,41.89453125,2.8125,39.31643125Z" fill="#2563EB" fill-opacity="1" style="mix-blend-mode:passthrough"/></g></g></g></svg>