<svg xmlns="http://www.w3.org/2000/svg" xmlns:xlink="http://www.w3.org/1999/xlink" fill="none" version="1.1" width="16" height="16" viewBox="0 0 16 16"><defs><clipPath id="master_svg0_45_0560"><rect x="0" y="0" width="16" height="16" rx="0"/></clipPath></defs><g clip-path="url(#master_svg0_45_0560)"><g transform="matrix(1,0,0,-1,0,32.6875)"><g><path d="M10.5,21.34375Q12.8438,21.40625,14.375,22.96875Q15.9375,24.5,16,26.84375Q15.9375,29.18755,14.375,30.71875Q12.8438,32.28125,10.5,32.34375Q8.15625,32.28125,6.625,30.71875Q5.0625,29.18755,5,26.84375Q5,25.96875,5.25,25.15625L0.21875,20.125Q0,19.90625,0,19.59375L0,17.09375Q0.0625,16.40625,0.75,16.34375L3.25,16.34375Q3.9375,16.40625,4,17.09375L4,18.34375L5.25,18.34375Q5.9375,18.40625,6,19.09375L6,20.34375L7.25,20.34375Q7.5625,20.34375,7.78125,20.5625L8.8125,21.59375Q9.625,21.34375,10.5,21.34375ZM11.75,29.34375Q12.4688,29.31255,12.8438,28.71875Q13.1562,28.09375,12.8438,27.46875Q12.4688,26.87495,11.75,26.84375Q11.0312,26.87495,10.6562,27.46875Q10.3438,28.09375,10.6562,28.71875Q11.0312,29.31255,11.75,29.34375Z" fill="#FFFFFF" fill-opacity="1" style="mix-blend-mode:passthrough"/></g></g></g></svg>