<svg xmlns="http://www.w3.org/2000/svg" xmlns:xlink="http://www.w3.org/1999/xlink" fill="none" version="1.1" width="12.25" height="14" viewBox="0 0 12.25 14"><defs><clipPath id="master_svg0_29_687"><rect x="0" y="0" width="12.25" height="14" rx="0"/></clipPath></defs><g clip-path="url(#master_svg0_29_687)"><g transform="matrix(1,0,0,-1,0,25.1015625)"><g><path d="M0.246094,18.42969125Q0,18.15625125,0,17.80078125Q0,17.44531125,0.246094,17.17187125L4.62109,12.79687525Q4.89453,12.55078125,5.25,12.55078125Q5.60547,12.55078125,5.87891,12.79687525Q6.125,13.07031225,6.125,13.42578125Q6.125,13.78125125,5.87891,14.05469125L2.98047,16.92578125L11.375,16.92578125Q11.7578,16.92578125,12.0039,17.17187125Q12.25,17.41797125,12.25,17.80078125Q12.25,18.18359125,12.0039,18.42969125Q11.7578,18.67578125,11.375,18.67578125L2.98047,18.67578125L5.87891,21.546871250000002Q6.125,21.82031125,6.125,22.17578125Q6.125,22.53125125,5.87891,22.80468125Q5.60547,23.05078125,5.25,23.05078125Q4.89453,23.05078125,4.62109,22.80468125L0.246094,18.42969125Z" fill="#000000" fill-opacity="1" style="mix-blend-mode:passthrough"/></g></g></g></svg>