<svg xmlns="http://www.w3.org/2000/svg" xmlns:xlink="http://www.w3.org/1999/xlink" fill="none" version="1.1" width="21" height="24" viewBox="0 0 21 24"><defs><clipPath id="master_svg0_87_1656"><rect x="0" y="0" width="21" height="24" rx="0"/></clipPath></defs><g clip-path="url(#master_svg0_87_1656)"><g transform="matrix(1,0,0,-1,0,46.125)"><g><path d="M19.5,44.0625L1.5,44.0625L19.5,44.0625L1.5,44.0625Q0.84375,44.0625,0.421875,43.6406Q0,43.1719,0,42.5625L0,24.5625Q0,23.953125,0.421875,23.484375Q0.84375,23.0625,1.5,23.0625L19.5,23.0625Q20.1562,23.0625,20.5781,23.484375Q21,23.953125,21,24.5625L21,42.5625Q21,43.1719,20.5781,43.6406Q20.1562,44.0625,19.5,44.0625ZM6.32812,26.0625L3.23438,26.0625L6.32812,26.0625L3.23438,26.0625L3.23438,36.0937L6.375,36.0937L6.375,26.0625L6.32812,26.0625ZM4.78125,37.4531Q4.03125,37.4531,3.51562,37.9687Q3,38.4844,3,39.2344Q3,40.0313,3.51562,40.5469Q4.03125,41.0625,4.78125,41.0625Q5.57812,41.0625,6.04688,40.5469Q6.5625,40.0313,6.60938,39.2344Q6.5625,38.4844,6.04688,37.9687Q5.57812,37.4531,4.78125,37.4531ZM18,26.0625L14.9062,26.0625L18,26.0625L14.9062,26.0625L14.9062,30.9375Q14.9531,31.875,14.6719,32.71875Q14.4375,33.5156,13.2656,33.6094Q12.0938,33.5625,11.7188,32.8125Q11.3906,32.0625,11.4375,31.03125L11.4375,26.0625L8.29688,26.0625L8.29688,36.0937L11.2969,36.0937L11.2969,34.7344L11.3438,34.7344Q11.625,35.3437,12.375,35.8125Q13.125,36.3281,14.2969,36.3281Q16.5938,36.2813,17.3438,34.9687Q18.0938,33.6094,18,31.54688L18,26.0625Z" fill="#9CA3AF" fill-opacity="1" style="mix-blend-mode:passthrough"/></g></g></g></svg>