<?xml version="1.0" standalone="no"?>
<!DOCTYPE svg PUBLIC "-//W3C//DTD SVG 20010904//EN"
 "http://www.w3.org/TR/2001/REC-SVG-20010904/DTD/svg10.dtd">
<svg version="1.0" xmlns="http://www.w3.org/2000/svg"
 width="1590.000000pt" height="1962.000000pt" viewBox="0 0 1590.000000 1962.000000"
 preserveAspectRatio="xMidYMid meet">

<g transform="translate(0.000000,1962.000000) scale(0.100000,-0.100000)"
fill="#000000" stroke="none">
<path d="M0 9810 l0 -9810 2129 0 c1409 0 2132 3 2136 10 3 6 14 10 25 10 15
0 19 9 22 49 3 47 2 48 -20 40 -15 -6 -21 -5 -17 1 3 6 1 10 -4 10 -6 0 -11
15 -11 34 0 31 3 34 38 40 64 10 64 10 60 -38 -3 -43 -2 -45 24 -43 26 2 28 5
28 45 0 45 6 48 78 42 20 -1 22 3 22 44 0 38 -3 45 -22 49 -24 5 61 12 100 8
19 -2 22 3 22 38 0 46 8 54 61 53 33 -1 40 3 45 22 3 13 5 30 4 37 -2 8 -2 38
-1 67 1 49 3 53 24 50 18 -2 22 -9 23 -43 0 -22 3 -39 7 -37 4 1 16 2 27 2 17
0 20 7 20 45 l0 45 75 0 75 0 0 44 0 45 53 4 52 3 -52 2 -53 2 0 40 0 40 69 0
c38 0 83 3 100 6 29 6 31 9 31 50 0 43 1 44 33 45 31 2 31 2 4 6 -32 5 -42 22
-33 58 5 19 13 25 32 25 25 0 26 2 22 58 l-3 57 44 3 c32 2 47 -1 53 -12 10
-18 56 -20 181 -10 l77 7 0 43 0 44 49 0 c28 0 53 5 56 10 3 5 15 10 26 10 10
0 19 5 19 10 0 18 -48 11 -53 -7 -3 -10 -5 0 -6 22 -1 30 2 36 11 27 7 -7 21
-12 32 -11 18 1 17 2 -4 9 l-25 8 22 7 c19 6 23 14 23 51 0 40 2 44 25 44 23
0 25 -4 25 -40 0 -36 3 -40 25 -40 22 0 25 4 25 39 0 37 2 39 38 45 20 3 54 6
75 6 l37 0 0 45 c0 36 4 45 18 47 9 1 24 2 32 4 8 1 22 2 31 3 14 1 18 17 24
81 l7 80 43 0 c42 0 44 -1 48 -32 3 -27 4 -25 3 7 -1 36 2 40 27 43 25 3 27 7
27 48 l0 44 50 0 50 0 0 60 c0 57 -1 60 -25 60 -14 0 -25 5 -25 10 0 6 -11 10
-25 10 -21 0 -25 5 -25 30 0 25 -4 30 -25 30 -14 0 -25 3 -25 8 0 4 23 5 51 3
36 -2 49 0 45 8 -4 6 -25 11 -46 11 -39 0 -60 14 -43 31 14 14 193 24 193 10
0 -6 19 -11 45 -11 31 0 47 -5 51 -15 8 -20 54 -20 54 0 0 9 -9 15 -25 15 -23
0 -25 4 -25 45 0 41 -2 45 -25 45 -14 0 -25 5 -25 10 0 6 -11 10 -25 10 -16 0
-25 6 -25 15 0 9 -9 15 -25 15 -14 0 -25 5 -25 10 0 6 11 10 25 10 14 0 25 -4
25 -10 0 -5 11 -10 24 -10 13 0 26 -5 28 -11 2 -6 24 -11 50 -11 31 0 48 -4
52 -14 4 -9 21 -14 50 -14 25 0 48 -5 51 -11 9 -14 86 -2 100 16 7 9 57 15
158 20 l147 7 0 44 c0 43 1 44 35 45 19 1 41 2 48 3 7 0 13 19 15 44 3 37 6
42 28 42 24 0 24 1 25 98 2 87 3 92 10 47 5 -27 14 -91 20 -140 l11 -91 284
-3 284 -2 0 45 0 46 405 0 c353 0 405 -2 405 -15 0 -9 9 -15 25 -15 14 0 25 6
25 13 0 11 30 16 122 20 66 4 146 7 176 7 46 0 55 3 59 21 5 19 11 20 51 14
30 -4 47 -3 52 5 5 8 22 9 54 5 50 -8 63 -25 19 -25 -22 0 -25 -2 -13 -10 10
-6 11 -10 3 -10 -7 0 -13 -10 -13 -21 0 -20 4 -21 48 -14 26 4 49 11 50 16 2
5 24 9 49 9 31 0 50 5 58 17 16 22 45 10 46 -19 0 -13 3 -17 6 -10 6 14 93 17
93 2 0 -5 -11 -10 -25 -10 -22 0 -25 -4 -25 -35 0 -30 -3 -35 -22 -35 -43 0
-67 -12 -70 -33 -2 -13 -13 -23 -27 -27 -14 -3 -26 -10 -28 -16 -2 -7 31 -14
94 -18 54 -4 134 -11 178 -15 l80 -8 -72 -1 c-72 -2 -84 -9 -76 -43 4 -13 28
-18 136 -24 73 -4 185 -9 250 -10 l117 -3 2 52 1 51 4 -44 c3 -32 9 -44 24
-48 19 -5 23 -14 20 -45 -2 -13 6 -18 26 -19 23 -2 24 -2 6 -6 -23 -4 -33 -23
-13 -23 6 0 10 -7 10 -15 0 -9 7 -18 15 -21 8 -4 15 -17 15 -30 0 -22 4 -24
50 -24 36 0 50 -4 50 -14 0 -10 15 -15 50 -18 33 -2 49 1 46 8 -3 7 29 10 100
10 92 -1 104 -3 104 -18 0 -16 -11 -18 -101 -18 -76 0 -100 -3 -97 -12 3 -9
35 -14 101 -16 82 -2 97 0 97 13 0 9 9 15 25 15 14 0 25 5 25 10 0 6 11 10 24
10 13 0 26 4 28 9 2 5 12 11 23 13 17 3 20 -3 23 -44 3 -45 5 -48 32 -48 24 0
27 -3 24 -22 -2 -13 -2 -17 2 -10 9 18 94 16 94 -3 0 -11 -12 -15 -45 -15 -33
0 -45 -4 -45 -15 0 -17 10 -18 139 -17 67 1 99 -2 110 -12 9 -7 25 -12 36 -10
29 5 55 -5 55 -22 0 -10 -13 -14 -45 -14 -25 0 -45 -4 -45 -10 0 -5 20 -10 45
-10 33 0 47 -5 52 -16 5 -15 39 -16 332 -13 l326 4 5 -45 c5 -45 5 -45 53 -54
l47 -9 0 -84 c0 -81 0 -83 24 -83 22 0 25 5 29 42 l4 43 1 -47 c1 -27 6 -48
10 -48 4 0 6 -17 4 -37 -5 -41 14 -63 55 -63 21 0 23 -5 23 -45 0 -41 2 -45
25 -45 22 0 25 -4 25 -39 l0 -38 77 -7 c42 -3 134 -6 205 -6 l128 0 0 -46 0
-45 48 1 c26 1 71 1 100 1 l52 -1 0 -45 0 -45 50 0 50 0 0 -48 0 -49 43 0 c97
0 105 -2 109 -25 4 -31 48 -39 48 -9 0 16 6 21 24 21 22 0 25 -5 28 -43 l3
-42 46 -3 47 -3 7 -90 7 -89 49 0 49 0 0 -45 c0 -41 2 -45 25 -45 23 0 25 -3
25 -50 0 -47 2 -50 25 -50 23 0 25 -4 25 -46 0 -41 2 -45 23 -42 20 3 23 -2
28 -47 l6 -50 1 43 c2 35 5 42 22 42 17 0 20 -7 20 -44 0 -42 1 -44 38 -50 20
-3 574 -6 1230 -6 l1192 0 0 9810 0 9810 -3260 0 -3260 0 0 -41 c0 -26 -8 -53
-25 -77 -19 -28 -25 -50 -25 -92 0 -45 -5 -59 -24 -78 -20 -18 -26 -37 -31
-98 -5 -45 -12 -77 -20 -80 -8 -4 -15 -42 -20 -116 -5 -84 -12 -122 -31 -161
-13 -29 -24 -60 -24 -70 0 -9 -4 -25 -10 -35 -14 -26 -40 -127 -40 -156 0 -14
-5 -26 -10 -26 -6 0 -13 -8 -17 -17 -3 -10 -15 -28 -26 -40 -15 -17 -17 -26
-9 -36 9 -10 6 -21 -11 -44 -12 -16 -28 -28 -34 -26 -7 3 -13 -2 -13 -11 0 -9
-7 -16 -15 -16 -11 0 -15 -12 -15 -44 0 -49 -17 -63 -47 -41 -20 16 -113 20
-113 6 0 -5 -21 -12 -46 -16 -34 -5 -48 -12 -51 -26 -3 -12 -14 -19 -29 -19
-17 0 -24 -6 -24 -19 0 -13 -8 -21 -22 -23 -15 -2 -24 -11 -26 -25 -3 -17 -10
-23 -28 -23 -15 0 -24 -6 -24 -15 0 -9 -9 -15 -25 -15 -14 0 -25 -4 -25 -8 0
-10 0 -9 -87 -18 -44 -5 -63 -11 -63 -20 0 -18 -46 -18 -53 0 -3 8 -30 16 -69
20 -62 6 -263 10 -283 6 -21 -5 -35 1 -35 13 0 21 -37 50 -57 45 -13 -4 -25 6
-41 31 -13 20 -37 46 -53 56 -16 11 -40 35 -52 54 -12 19 -29 45 -37 58 -8 12
-23 23 -32 23 -10 0 -18 7 -18 15 0 9 -24 40 -54 70 -30 29 -57 63 -61 74 -3
12 -11 21 -16 21 -16 0 -60 52 -76 88 -9 22 -19 32 -28 28 -7 -2 -19 2 -26 10
-7 8 -18 13 -24 10 -7 -2 -17 0 -23 6 -15 15 7 48 27 41 12 -5 13 -3 5 6 -7 7
-9 31 -6 57 4 36 2 44 -12 44 -12 0 -16 10 -16 45 0 31 -5 47 -15 51 -12 5
-15 25 -15 95 0 88 0 89 -25 89 -23 0 -25 4 -25 44 0 25 -4 48 -10 51 -5 3
-10 26 -10 51 0 40 -2 44 -25 44 -23 0 -25 4 -25 45 0 33 -4 45 -15 45 -11 0
-15 12 -15 50 0 47 -2 50 -25 50 -14 0 -25 5 -25 10 0 6 -11 10 -25 10 -22 0
-25 4 -25 35 l0 35 -3525 0 -3525 0 0 -9810z m9735 7190 c-4 -6 7 -10 24 -10
23 0 31 -5 31 -18 0 -11 27 -47 60 -82 33 -35 60 -67 60 -71 0 -4 9 -10 20
-14 23 -7 60 -64 60 -94 0 -12 6 -32 14 -44 8 -12 22 -56 31 -97 10 -41 23
-93 30 -115 8 -22 16 -75 20 -118 l7 -78 -44 -39 c-23 -22 -47 -39 -53 -40 -5
0 -18 -14 -27 -31 -10 -17 -22 -28 -28 -24 -5 3 -17 -10 -27 -30 -9 -19 -20
-30 -23 -24 -4 5 -27 12 -51 14 -24 2 -47 4 -50 4 -4 1 -12 15 -19 31 -7 17
-19 30 -27 30 -12 0 -14 30 -12 183 1 193 -5 266 -25 282 -14 11 -36 194 -36
298 0 40 5 74 13 82 14 16 62 21 52 5z m-1741 -16 c9 -8 16 -23 16 -32 0 -13
-3 -12 -16 6 -17 25 -46 29 -64 7 -35 -42 -13 -165 29 -165 11 0 27 10 35 22
10 14 16 17 16 8 0 -7 -9 -24 -21 -36 -20 -22 -21 -24 -9 -316 11 -286 18
-371 19 -256 l1 57 38 -6 c40 -6 65 -20 57 -33 -3 -4 8 -20 23 -35 26 -26 27
-33 30 -136 2 -60 8 -109 13 -109 4 0 8 -40 8 -90 0 -73 -3 -92 -17 -100 -14
-8 -10 -9 15 -8 44 3 80 -32 89 -86 6 -40 7 -41 22 -18 8 12 20 22 28 22 8 0
14 17 17 48 2 31 5 17 7 -43 2 -49 5 -78 7 -62 2 15 9 27 14 27 5 0 9 65 9
153 0 137 -2 153 -18 164 -43 26 -51 137 -16 206 13 23 21 28 46 25 18 -2 35
-11 42 -23 6 -11 15 -23 20 -26 5 -4 7 -42 4 -85 -4 -64 -9 -81 -27 -95 -20
-16 -21 -26 -21 -153 0 -79 4 -136 9 -136 6 0 11 21 13 48 3 44 5 47 31 47 22
1 27 -4 27 -22 0 -18 6 -23 25 -23 18 0 25 5 25 19 0 11 9 23 20 26 15 5 20
15 20 44 0 21 3 41 7 44 3 4 7 26 7 50 1 35 5 43 22 45 19 3 22 -3 27 -74 10
-111 9 -162 -3 -144 -5 8 -10 12 -12 10 -14 -22 -28 -51 -28 -59 0 -5 20 -9
45 -9 l45 0 0 44 c0 44 1 45 28 42 24 -3 27 -8 30 -45 l3 -42 44 6 c35 4 46 2
51 -11 3 -9 14 -16 24 -16 10 0 21 -7 24 -16 9 -24 50 -14 54 14 2 14 10 22
23 22 15 0 19 -7 19 -37 0 -62 10 -83 36 -83 13 0 24 -4 24 -10 0 -5 13 -10
30 -10 28 0 57 -29 43 -44 -3 -3 1 -6 10 -6 10 0 17 -6 17 -14 0 -18 39 -9 47
10 3 8 9 12 13 9 13 -8 40 6 40 21 0 18 22 64 30 64 4 0 5 -20 3 -44 -3 -26
-1 -46 6 -50 6 -4 11 -19 11 -33 0 -18 4 -24 15 -19 8 3 21 -1 28 -8 8 -8 25
-12 40 -9 21 4 27 1 27 -12 0 -37 23 -94 40 -98 11 -3 20 -19 24 -42 4 -21 11
-45 16 -54 9 -16 36 -141 46 -211 3 -19 11 -71 20 -115 8 -44 18 -136 22 -205
l7 -125 29 -2 c35 -3 35 -2 39 -44 4 -34 4 -34 61 -37 31 -2 56 1 56 5 0 4
-24 8 -52 7 -39 -1 -42 0 -14 3 22 2 46 12 53 21 10 14 12 14 13 2 0 -9 6 -4
13 10 7 13 25 29 41 35 25 8 31 6 52 -18 13 -16 24 -35 24 -44 0 -9 3 -14 6
-10 7 6 44 -29 44 -42 0 -16 74 -81 91 -81 9 0 28 9 42 20 20 16 26 17 30 6 4
-9 14 -12 25 -9 25 6 34 -9 48 -72 6 -27 15 -49 21 -48 11 2 25 -69 25 -124 0
-18 1 -33 3 -33 4 0 73 117 161 275 74 133 79 144 84 218 5 60 11 83 27 99 42
42 94 -11 92 -94 l-1 -43 -8 53 c-13 88 -54 111 -85 46 -40 -85 26 -206 69
-126 8 15 15 21 16 13 1 -35 -59 -67 -76 -40 -11 19 -2 35 -178 -303 -72 -140
-85 -176 -69 -191 3 -4 7 -17 8 -30 4 -45 16 -113 24 -132 5 -11 17 -54 26
-97 12 -54 24 -82 41 -97 13 -11 24 -29 24 -40 0 -17 25 -55 84 -127 14 -18
26 -37 26 -43 0 -6 5 -11 10 -11 6 0 10 -6 10 -13 0 -7 15 -28 34 -46 18 -18
42 -50 52 -72 15 -30 28 -42 57 -51 63 -19 79 -53 77 -156 -3 -111 -3 -112 15
-112 12 0 15 -14 15 -65 0 -58 20 -129 42 -145 4 -3 6 -30 6 -60 -1 -37 6 -70
21 -101 12 -25 20 -56 19 -69 -5 -41 29 -44 443 -41 l257 1 7 28 c11 44 33 72
59 72 30 0 66 -68 66 -123 0 -46 -23 -105 -45 -113 -34 -13 -63 5 -77 48 l-15
43 -189 2 c-104 1 -218 4 -253 6 -59 5 -158 -4 -220 -19 -20 -4 -22 -7 -10
-14 7 -5 14 -13 14 -17 1 -4 7 -19 15 -33 8 -14 17 -51 21 -83 4 -31 18 -81
32 -110 14 -28 29 -70 33 -92 4 -22 17 -69 29 -105 40 -118 73 -234 79 -281 3
-26 15 -62 26 -82 12 -20 20 -51 20 -73 -2 -95 2 -128 16 -148 7 -11 14 -16
14 -12 0 5 3 7 6 4 3 -4 1 -16 -5 -27 -21 -38 14 -460 39 -485 6 -6 10 -28 10
-50 0 -44 47 -179 59 -171 5 2 11 -48 15 -112 3 -64 10 -121 15 -127 5 -6 11
-38 14 -71 20 -197 26 -244 35 -261 9 -18 21 -80 26 -134 1 -14 5 -38 10 -55
9 -35 38 -166 61 -275 8 -41 15 -88 15 -103 0 -18 11 -39 29 -57 62 -63 50
-238 -18 -248 -21 -3 -30 -22 -11 -22 12 0 14 -256 2 -264 -5 -3 -14 -71 -22
-151 -7 -80 -16 -145 -21 -145 -5 0 -8 -38 -7 -85 1 -53 -3 -90 -10 -97 -7 -7
-12 -46 -12 -100 0 -48 -6 -107 -13 -130 -8 -24 -15 -65 -16 -93 -1 -27 -6
-54 -11 -60 -11 -13 -40 -158 -60 -295 -11 -76 -30 -150 -42 -166 -4 -6 -12
-42 -17 -80 -5 -38 -16 -87 -25 -109 -8 -22 -22 -72 -30 -111 -8 -39 -26 -94
-40 -122 -18 -35 -26 -67 -26 -102 0 -27 -4 -50 -8 -50 -12 0 -32 -208 -32
-328 0 -55 -7 -160 -16 -234 -11 -95 -14 -179 -11 -294 3 -89 2 -165 -3 -170
-4 -5 -11 -166 -15 -359 -3 -192 -12 -411 -20 -485 -14 -138 -28 -357 -26
-398 0 -12 -10 -129 -24 -260 -14 -130 -28 -336 -31 -457 -4 -149 -12 -251
-24 -315 -10 -52 -21 -161 -25 -243 -6 -130 -9 -149 -26 -158 -10 -5 -19 -15
-19 -22 -1 -26 -37 -54 -79 -61 -38 -6 -43 -4 -48 14 -3 11 -13 20 -23 20 -9
0 -33 15 -53 34 -39 37 -49 71 -48 171 0 33 -4 85 -10 115 -18 95 -28 162 -43
275 -8 61 -20 139 -26 175 -6 36 -15 92 -19 125 -9 65 -24 144 -47 242 -8 34
-14 75 -14 91 0 15 -9 64 -19 108 -10 43 -26 120 -36 169 -9 50 -20 108 -25
130 -5 22 -14 67 -20 100 -16 76 -67 294 -85 360 -27 101 -65 276 -65 303 0
16 -7 51 -14 78 -8 27 -22 123 -31 214 -9 91 -21 176 -27 190 -6 14 -10 32 -9
41 1 9 -16 55 -39 102 -22 47 -40 97 -40 112 0 14 -3 24 -7 22 -5 -3 -8 9 -9
26 -1 18 -7 59 -14 92 -7 33 -14 89 -17 124 -2 36 -8 70 -13 76 -5 6 -11 35
-14 65 -3 30 -12 75 -21 100 -11 30 -16 78 -16 145 1 157 -27 334 -63 404 -9
16 -16 38 -16 48 0 10 -6 27 -13 38 -8 11 -22 43 -32 70 -9 28 -20 59 -25 70
-28 76 -33 94 -37 130 -6 46 -19 66 -38 59 -10 -4 -13 15 -13 88 0 54 4 96 10
99 6 4 -21 12 -58 18 -115 20 -124 42 -23 55 53 7 54 8 39 34 -16 28 -60 171
-60 193 0 30 -29 183 -46 245 -8 28 -14 85 -14 127 0 45 -4 77 -10 77 -5 0
-10 15 -10 33 0 35 -13 119 -31 200 -9 39 -15 47 -34 47 -12 0 -29 10 -37 21
l-14 22 -49 -26 c-28 -15 -54 -38 -62 -54 -7 -15 -27 -53 -44 -83 -17 -30 -42
-76 -55 -102 -13 -27 -29 -48 -34 -48 -6 0 -10 -7 -10 -15 0 -9 -8 -30 -17
-48 -9 -18 -16 -39 -15 -47 1 -10 -1 -11 -4 -2 -3 6 -12 12 -20 12 -16 0 -8
27 18 54 10 11 21 35 24 53 3 18 15 38 25 44 11 6 18 19 17 33 -1 13 6 43 16
67 32 77 34 82 61 174 14 50 30 102 35 117 8 26 8 27 -62 38 -38 7 -66 16 -61
20 4 4 37 13 72 19 35 6 64 12 65 13 2 4 -13 388 -16 403 0 6 2 20 6 32 6 18
3 23 -16 27 -57 13 -176 24 -201 19 -24 -5 -29 -1 -42 33 -9 22 -20 48 -26 59
-8 15 -5 14 11 -4 11 -13 25 -31 30 -40 6 -11 23 -16 57 -15 69 0 173 15 173
25 0 4 -16 24 -35 45 -29 31 -35 44 -35 81 0 58 -28 141 -51 154 -13 7 -19 21
-19 47 0 20 -12 82 -26 137 -14 55 -30 119 -36 142 -5 23 -16 47 -24 54 -8 7
-14 29 -14 55 0 23 -4 45 -9 48 -5 4 -41 12 -80 19 -87 17 -94 11 -111 -83 -6
-36 -21 -98 -31 -138 -11 -40 -18 -82 -15 -95 3 -12 3 -17 0 -10 -3 7 -12 9
-20 6 -18 -7 -18 16 0 42 17 25 55 187 66 280 5 39 13 88 20 110 17 62 28 366
13 360 -8 -3 -13 4 -13 17 0 12 -6 40 -14 63 -17 51 -36 114 -86 295 -23 80
-45 153 -51 162 -5 10 -9 26 -9 35 0 10 -5 25 -10 33 -7 10 -8 -48 -4 -180 22
-693 -158 -1378 -462 -1760 -108 -135 -200 -216 -308 -270 -26 -14 -54 -34
-61 -45 -7 -11 -22 -92 -35 -180 -13 -88 -29 -170 -36 -182 -22 -36 -17 -41
37 -39 59 3 162 50 175 81 6 12 19 20 34 20 32 1 136 79 156 117 8 15 21 28
28 28 22 0 133 125 146 164 6 20 16 36 22 36 13 0 41 33 85 103 20 31 38 57
40 57 6 0 -37 -80 -72 -134 -18 -28 -36 -69 -40 -91 -6 -33 -9 -37 -18 -23
-10 15 -14 13 -34 -15 -13 -17 -43 -52 -66 -77 -64 -67 -67 -88 -64 -445 2
-304 2 -311 25 -342 12 -17 22 -36 22 -41 0 -12 54 -115 125 -237 29 -49 69
-120 89 -157 20 -37 41 -70 46 -73 6 -3 10 -16 11 -28 1 -20 2 -20 13 5 6 15
51 66 99 114 48 48 87 91 87 95 0 5 21 33 48 62 91 103 112 129 112 140 0 14
87 97 102 97 8 0 6 6 -4 17 -12 12 -43 18 -110 22 -92 6 -93 6 -103 36 -6 17
-25 57 -43 90 -18 32 -31 64 -29 69 2 5 13 -10 25 -35 12 -24 35 -62 50 -84
l28 -40 69 1 c39 0 104 2 145 4 79 4 180 -7 180 -21 0 -4 3 -16 7 -26 6 -17 5
-17 -13 -1 -16 14 -28 15 -69 7 -27 -4 -65 -11 -82 -14 -27 -5 -33 -11 -33
-30 0 -14 -9 -39 -20 -57 -11 -18 -20 -41 -20 -51 0 -10 -4 -16 -9 -13 -5 3
-11 -7 -14 -22 -3 -15 -17 -40 -31 -56 -14 -16 -28 -37 -31 -47 -4 -11 -10
-19 -15 -19 -5 0 -17 -15 -26 -32 -16 -32 -94 -132 -149 -193 -79 -87 -148
-154 -155 -150 -4 3 -10 -9 -14 -25 -7 -40 -9 -858 -1 -870 4 -6 15 -4 28 5
12 8 97 40 187 70 184 63 237 70 315 40 138 -52 218 -148 277 -335 21 -68 23
-92 22 -260 -1 -235 -24 -347 -101 -495 -42 -81 -64 -109 -181 -230 -55 -57
-125 -137 -155 -177 -29 -40 -60 -80 -68 -88 -8 -8 -41 -49 -74 -90 -115 -145
-271 -283 -434 -385 -108 -68 -287 -240 -406 -390 -38 -48 -106 -122 -149
-164 -106 -101 -168 -163 -246 -246 -66 -69 -197 -163 -258 -183 -18 -6 -46
-20 -62 -32 -67 -48 -210 -109 -310 -134 -107 -26 -260 -35 -345 -22 -210 35
-376 85 -451 137 -23 16 -46 29 -49 29 -4 0 -23 13 -42 30 -18 17 -38 30 -43
30 -6 0 -18 7 -28 15 -58 52 -182 140 -192 138 -3 -1 -12 4 -20 11 -8 7 -22
16 -30 20 -8 3 -28 15 -45 26 -16 11 -39 24 -50 29 -11 5 -33 22 -50 36 -64
58 -93 73 -170 90 -44 10 -89 24 -100 32 -11 7 -36 13 -56 13 -20 0 -42 7 -49
15 -7 8 -21 15 -31 15 -11 0 -28 5 -39 10 -11 5 -29 15 -40 20 -12 6 -25 8
-29 5 -5 -2 -14 2 -21 10 -7 8 -19 15 -26 15 -8 0 -22 4 -32 9 -9 5 -39 20
-66 32 -27 13 -58 32 -68 42 -10 9 -24 17 -31 17 -8 0 -34 20 -59 45 -25 25
-51 45 -57 45 -6 0 -11 7 -11 15 0 9 -11 20 -25 25 -14 5 -25 15 -25 22 0 7
-12 24 -26 38 -53 52 -95 107 -120 157 -14 29 -32 57 -40 64 -8 6 -14 22 -14
34 0 12 -9 34 -20 48 -11 14 -20 34 -20 45 0 12 -4 23 -9 27 -5 3 -12 19 -16
35 -4 16 -15 46 -25 67 -11 22 -15 42 -10 47 5 5 -1 28 -16 53 -13 24 -24 49
-24 56 0 7 -9 30 -19 50 -15 30 -19 60 -20 145 -1 136 -11 243 -24 260 -7 9
-7 16 1 24 13 13 14 10 32 -69 7 -29 16 -53 21 -53 5 0 9 -8 9 -19 0 -10 7
-32 15 -47 8 -16 15 -37 15 -46 0 -10 5 -18 11 -18 8 0 10 20 7 64 -5 57 -3
65 13 69 14 4 19 14 19 41 0 29 9 45 45 83 25 25 45 50 45 54 0 5 6 9 14 9 9
0 16 12 18 27 2 22 9 28 28 30 14 0 29 1 34 2 5 1 3 8 -4 16 -10 12 -10 15 4
15 26 0 22 78 -6 107 -20 21 -20 24 -5 41 10 10 17 24 17 30 0 7 4 12 9 12 14
0 73 62 76 79 1 9 16 18 33 22 31 6 32 6 32 -31 0 -54 -8 -70 -36 -70 -22 0
-24 -4 -24 -45 0 -39 3 -45 20 -45 11 0 23 -7 26 -15 4 -8 15 -15 25 -15 12 0
23 -10 29 -28 6 -15 20 -52 32 -83 l21 -56 49 4 48 3 0 -45 c0 -25 5 -45 10
-45 6 0 10 -22 10 -50 0 -38 4 -50 15 -50 10 0 15 -10 15 -34 0 -19 6 -41 13
-48 8 -7 16 -25 20 -38 3 -14 11 -43 17 -65 6 -22 15 -56 19 -75 3 -20 10 -30
14 -24 9 16 -9 192 -29 279 -9 39 -20 90 -24 115 -45 266 -71 384 -104 477
-13 38 -51 217 -75 363 -6 36 -13 99 -16 140 -2 41 -9 91 -15 110 -20 67 -9
210 16 210 10 0 14 14 14 46 0 44 1 46 24 40 20 -5 32 2 64 34 l39 40 11 -102
c7 -57 16 -161 22 -233 10 -122 19 -201 71 -620 11 -93 36 -269 54 -390 19
-121 41 -281 50 -355 9 -74 20 -146 25 -160 5 -14 11 -41 14 -61 4 -19 12 -44
20 -54 12 -16 14 16 13 225 0 267 6 313 41 318 13 2 24 13 28 28 3 13 10 24
15 24 5 0 9 10 9 23 0 12 12 33 25 46 14 13 25 34 25 47 0 19 5 24 25 24 14 0
28 7 31 15 4 8 17 15 29 15 20 0 23 5 22 28 -2 23 2 28 26 30 35 4 37 32 2 32
-14 0 -25 5 -25 10 0 6 11 10 25 10 14 0 25 -4 25 -10 0 -5 12 -10 26 -10 25
0 25 1 23 63 -1 38 -8 69 -17 80 -8 9 -11 17 -6 17 5 0 3 4 -4 8 -26 17 -3 38
37 34 30 -3 41 -9 45 -26 3 -12 14 -31 26 -43 11 -12 20 -31 20 -43 0 -23 34
-28 46 -8 14 22 22 -31 23 -144 1 -66 -3 -108 -9 -108 -12 0 -13 -77 -1 -84 4
-3 11 -58 15 -123 4 -65 11 -122 17 -127 5 -6 9 -36 9 -68 0 -40 4 -60 14 -64
27 -10 39 -79 34 -201 -4 -91 -9 -125 -23 -146 -15 -23 -15 -27 -2 -27 15 0
27 28 27 68 0 20 5 22 49 22 l50 0 3 42 c3 36 7 43 28 48 20 5 26 13 28 40 2
18 -2 43 -8 55 -6 12 -10 41 -8 66 3 41 5 44 31 42 l28 -2 -2 105 c-1 58 2
108 5 111 3 4 15 -3 26 -15 27 -28 70 -30 70 -3 0 17 7 20 55 20 41 0 55 -4
55 -15 0 -8 10 -14 25 -14 23 0 25 4 25 40 0 33 3 40 19 40 47 0 51 8 51 95 0
83 0 83 -29 93 -45 16 -65 54 -65 126 0 59 12 96 41 124 10 10 13 53 13 176 0
89 -3 165 -6 169 -3 3 -24 -1 -46 -9 -22 -8 -51 -14 -64 -14 -13 0 -24 -4 -24
-10 0 -5 -9 -14 -20 -20 -16 -8 -20 -8 -20 4 0 17 126 78 154 74 13 -2 22 3
24 15 5 23 -13 22 -95 -5 -89 -29 -153 -89 -153 -143 0 -20 -4 -45 -10 -55 -5
-10 -13 -42 -17 -71 -5 -29 -12 -53 -18 -53 -5 -1 -13 28 -17 63 -8 72 8 138
54 221 27 48 134 130 170 130 11 0 28 5 38 10 13 7 21 7 26 -2 18 -28 23 46
23 359 l1 332 35 67 c37 73 39 88 6 55 -17 -17 -25 -18 -57 -10 -20 6 -45 8
-55 6 -13 -4 -28 6 -47 28 -23 27 -34 33 -69 32 -23 0 -55 5 -70 11 -15 6 -40
13 -55 16 -25 6 -34 20 -29 48 0 4 -11 14 -27 22 -35 18 -64 50 -61 68 1 7 -1
21 -6 31 -4 9 -5 32 -2 50 2 17 1 39 -4 48 -4 8 -4 33 1 55 l9 39 -20 -25
c-10 -14 -36 -59 -57 -100 -40 -82 -49 -103 -33 -80 26 38 28 22 61 -646 9
-182 22 -314 45 -484 8 -58 24 -179 35 -270 58 -464 58 -467 17 -530 -13 -19
-29 -54 -35 -77 -7 -23 -18 -48 -26 -55 -7 -7 -15 -20 -18 -28 -4 -12 -7 -10
-16 6 -16 30 -30 176 -42 434 -17 367 -30 582 -40 665 -17 136 -32 428 -37
703 -5 268 -9 288 -43 247 -7 -8 -9 -15 -4 -15 13 0 16 -504 4 -575 -6 -33
-15 -105 -19 -160 -5 -55 -14 -113 -20 -128 -6 -16 -11 -53 -11 -83 0 -51 -1
-54 -25 -54 -20 0 -25 5 -25 25 0 21 -3 23 -21 17 -16 -6 -28 -2 -49 19 -15
16 -30 35 -33 44 -4 9 -19 15 -40 15 -26 0 -36 6 -50 30 -16 26 -24 30 -62 30
-60 0 -116 28 -109 55 3 11 17 29 30 40 13 12 24 26 24 33 0 6 12 15 28 18 61
15 72 49 12 39 -40 -7 -50 1 -28 23 8 8 2 10 -25 5 -30 -4 -37 -3 -37 11 0 18
-25 22 -35 6 -3 -5 -13 -10 -21 -10 -12 0 -12 4 -2 22 26 47 50 73 66 73 9 0
17 7 17 15 0 8 -8 14 -18 13 -25 -2 -58 76 -55 131 0 26 -6 52 -17 69 -10 17
-15 36 -11 51 4 15 0 28 -9 36 -8 7 -15 21 -15 31 0 10 -5 21 -11 24 -6 4 -10
21 -9 39 3 49 1 56 -15 56 -9 0 -15 9 -15 24 0 14 -4 28 -10 31 -5 3 -10 17
-10 30 0 13 -6 36 -14 52 -30 60 -47 142 -49 229 -1 59 -7 97 -15 107 -10 12
-13 49 -12 139 0 68 -2 138 -6 156 -4 22 -3 32 6 32 8 0 11 23 10 78 -3 117
-3 119 24 126 21 5 35 30 36 64 0 7 -13 12 -30 12 -16 0 -30 5 -30 10 0 6 11
10 25 10 25 0 33 14 15 25 -32 20 25 90 78 97 15 2 -17 8 -70 12 -54 5 -104 6
-112 3 -21 -8 -23 -65 -18 -482 6 -524 5 -549 -18 -622 -11 -34 -20 -76 -20
-93 0 -18 -6 -33 -15 -36 -10 -4 -15 -20 -15 -50 0 -32 -4 -44 -15 -44 -8 0
-15 -4 -15 -9 0 -6 -11 -22 -25 -37 -29 -31 -31 -60 -11 -130 8 -27 16 -59 18
-72 2 -12 8 -22 13 -22 11 1 23 -57 17 -78 -3 -8 -18 14 -34 47 -16 34 -31 61
-34 61 -2 0 -2 -36 2 -79 4 -44 2 -92 -3 -107 -6 -19 -5 -72 3 -154 11 -118
19 -155 46 -207 15 -30 3 -41 -21 -19 -18 16 -19 16 -24 -6 -3 -13 -6 -75 -7
-138 -1 -63 -3 -155 -5 -205 -2 -49 -4 -100 -5 -112 0 -18 -6 -23 -24 -23 -14
0 -27 -4 -30 -9 -4 -5 -26 -16 -49 -24 -34 -12 -55 -13 -95 -5 -46 9 -52 14
-52 35 0 14 -13 38 -30 55 -25 25 -30 38 -30 78 0 33 5 50 15 54 18 7 20 46 3
47 -7 1 -25 0 -40 -1 -27 -1 -51 21 -30 28 13 4 17 93 5 91 -36 -6 -43 2 -43
45 0 36 4 45 23 51 l22 8 -24 4 c-13 3 -27 -1 -32 -8 -10 -17 -15 -2 -23 67
-3 37 0 58 11 74 13 18 14 27 5 41 -14 21 -16 52 -4 63 4 4 7 25 8 47 0 25 8
47 21 61 15 17 18 29 13 43 -15 35 -11 95 5 101 8 4 15 16 15 29 0 13 10 30
25 39 34 22 31 36 -7 36 -53 1 -85 36 -66 73 6 12 2 26 -15 50 -19 24 -23 41
-20 68 3 21 0 40 -6 43 -6 4 -11 15 -11 25 0 14 -10 20 -40 25 -30 5 -43 13
-54 34 -8 15 -23 35 -34 45 -19 18 -20 17 -40 -10 -31 -45 -49 -95 -57 -164
-4 -35 -12 -73 -16 -84 -11 -23 -3 129 11 209 4 28 14 94 20 146 13 104 34
199 55 245 7 17 25 57 40 90 14 33 37 77 52 97 14 20 32 50 42 67 20 37 72
114 80 121 4 3 22 25 41 50 62 81 194 221 240 255 25 18 86 47 135 65 130 47
140 57 141 138 3 146 68 363 145 483 48 75 142 167 174 170 5 0 19 3 30 6 11
3 54 8 95 10 52 3 78 9 85 20 11 14 13 13 17 -5 3 -11 23 -30 44 -41 22 -11
59 -41 84 -66 25 -25 48 -45 51 -45 6 0 60 104 78 152 8 21 7 26 -3 22 -10 -4
-16 8 -20 41 -4 25 -15 69 -25 98 -10 29 -21 78 -25 109 -7 56 -8 57 -44 62
-93 14 -453 23 -472 11 -12 -7 -13 -6 -3 6 11 13 53 17 230 22 120 4 230 10
244 15 26 7 26 7 14 52 -20 66 -55 258 -57 309 -2 38 -6 45 -31 54 -61 21 -79
152 -31 223 l26 39 -12 120 c-7 66 -13 162 -13 213 0 50 -1 92 -3 92 -5 0 -79
-125 -165 -280 l-87 -155 -516 2 -516 2 -7 -27 c-25 -104 -105 -92 -120 18 -4
26 0 56 11 85 15 39 22 45 46 45 30 0 52 -25 64 -72 l6 -28 148 -2 c81 -1 163
0 182 2 19 1 183 3 364 4 l328 1 50 95 c28 52 84 162 125 244 l76 149 1 208 1
208 -29 5 c-16 3 -72 6 -126 6 l-98 0 -85 158 c-46 86 -112 210 -147 275 l-62
117 -284 0 -284 0 0 -25 c0 -26 -40 -75 -61 -75 -37 0 -65 78 -56 156 11 100
90 112 116 18 l8 -29 264 3 c145 2 274 -1 287 -5 16 -6 63 -83 167 -273 l144
-265 125 1 c124 0 149 5 130 24 -15 15 43 475 66 528 20 45 15 49 -73 57 l-84
7 -21 41 c-24 48 -74 140 -241 445 -64 118 -120 222 -126 232 -8 16 -25 19
-120 22 -109 4 -145 -2 -145 -24 0 -18 -31 -48 -50 -48 -26 0 -59 37 -66 75
-15 81 18 165 66 165 23 0 60 -53 60 -87 0 -22 3 -22 127 -25 l128 -3 73 -140
c41 -77 132 -247 204 -377 l130 -238 71 6 c40 4 74 9 77 11 3 2 13 61 22 131
10 70 22 147 27 172 19 91 51 264 51 273 0 5 -7 4 -15 -3 -12 -10 -15 -10 -15
1 0 7 12 23 28 36 15 12 21 22 15 23 -7 0 -13 -4 -13 -10 0 -5 -4 -10 -10 -10
-5 0 -7 7 -4 15 5 11 -1 15 -23 15 -25 0 -33 -6 -48 -40 -15 -33 -23 -40 -47
-40 -60 0 -90 120 -50 200 14 28 23 35 46 35 25 0 33 -7 54 -49 22 -45 26 -48
54 -42 17 3 39 6 49 6 11 0 19 5 19 10 0 6 -7 10 -14 10 -12 0 -13 6 -6 28 5
15 12 45 15 67 6 33 9 36 15 20 8 -20 8 -20 16 -1 5 13 3 21 -4 24 -14 4 -16
32 -3 32 5 0 13 10 17 23 8 23 9 33 12 80 2 21 7 27 20 25 10 -2 17 3 17 12 0
8 -7 14 -15 12 -11 -3 -11 1 3 16 9 10 17 32 17 48 0 16 4 35 9 43 7 11 11 10
19 -5 19 -33 22 -9 4 32 -26 60 -132 268 -142 278 -6 5 -15 4 -25 -4 -12 -10
-19 -9 -40 4 -69 45 -50 226 25 226 32 0 53 -45 60 -133 7 -74 12 -90 59 -170
28 -48 51 -92 51 -97 0 -6 4 -10 10 -10 5 0 17 -14 25 -31 21 -40 27 -33 14
14 -7 25 -7 43 0 55 9 15 10 14 11 -7 0 -20 2 -21 15 -11 8 7 15 18 15 24 0 7
14 39 30 71 17 32 30 63 30 69 0 6 9 22 20 36 11 14 20 31 20 38 0 15 40 74
58 85 6 4 12 15 12 23 0 20 -111 241 -242 481 l-34 62 -382 3 -383 3 -11 -38
c-7 -22 -22 -46 -35 -54 -21 -14 -25 -14 -43 2 -45 41 -51 159 -9 204 34 36
63 24 84 -35 l13 -39 369 -2 c202 -1 377 -5 388 -7 13 -4 42 -46 83 -125 65
-121 191 -346 219 -390 l15 -24 21 34 c42 69 77 124 86 135 5 6 22 30 37 54
16 24 37 55 46 69 10 14 21 33 25 41 3 8 9 17 13 20 3 3 20 28 38 55 17 28 42
62 54 77 13 15 34 44 48 63 35 50 118 135 131 135 7 0 8 7 4 18 -4 9 -7 110
-6 225 2 147 -1 207 -9 207 -17 0 -40 64 -40 113 0 97 46 145 93 98 19 -18 22
-33 22 -95 0 -63 -3 -78 -22 -98 -22 -23 -23 -31 -23 -209 0 -131 4 -189 12
-197 17 -17 28 -15 29 6 0 9 27 40 60 67 32 28 67 58 76 68 10 10 33 25 51 34
17 8 32 23 33 32 0 11 2 12 6 3 4 -10 8 -10 19 -1 12 10 14 115 14 652 0 633
0 641 -21 663 -28 30 -36 117 -15 167 19 45 38 54 71 37 52 -28 55 -181 5
-213 -19 -11 -20 -26 -19 -572 1 -308 5 -603 9 -655 3 -52 7 -83 8 -67 2 21
14 35 57 62 30 20 58 36 62 36 5 0 15 6 23 13 20 18 119 48 130 41 16 -10 11
23 -11 76 -23 52 -26 54 -48 40 -23 -15 -59 9 -72 47 -16 47 -7 137 16 162 10
11 29 20 42 20 36 0 67 -76 59 -142 -6 -44 -3 -55 29 -107 43 -72 62 -90 71
-67 3 9 11 16 18 15 16 -3 46 11 86 40 61 45 63 49 46 67 -19 19 -20 23 -3 43
11 13 11 38 2 131 -6 63 -17 128 -23 143 -7 16 -12 44 -12 63 0 24 -8 42 -24
57 -19 18 -24 34 -27 92 -3 46 -12 84 -26 112 -13 24 -25 72 -29 109 -5 43
-12 68 -21 71 -9 4 -14 18 -12 42 2 38 -1 50 -32 118 -14 31 -19 66 -19 128 0
47 -4 85 -9 85 -5 0 -11 20 -13 45 -2 25 0 45 4 45 5 0 8 42 8 94 0 93 0 94
25 94 19 0 25 -6 25 -23 0 -18 4 -21 25 -17 14 2 25 8 25 13 0 5 11 9 25 9 14
0 25 -4 25 -10 0 -5 11 -10 24 -10 13 0 27 -7 30 -16 3 -9 15 -14 29 -12 12 1
37 -7 54 -20 17 -12 36 -22 42 -22 5 0 22 -11 37 -25 15 -14 32 -25 38 -25 6
0 19 -8 28 -17 9 -10 37 -34 63 -52 46 -34 71 -75 106 -173 7 -21 17 -38 21
-38 4 0 8 -25 8 -55 0 -40 4 -57 15 -61 10 -4 15 -20 15 -45 0 -42 2 -44 31
-29 19 11 20 10 23 -30 1 -8 11 -16 23 -18 14 -2 29 -16 39 -38 9 -19 18 -33
21 -31 2 2 4 123 4 267 0 260 -1 263 -23 287 -31 33 -34 149 -4 182 23 25 49
27 70 5z m23 -116 c-2 -13 -4 -3 -4 22 0 25 2 35 4 23 2 -13 2 -33 0 -45z
m-4883 -487 c8 -13 -19 -21 -70 -21 -29 0 -43 4 -39 11 4 6 19 7 36 4 18 -4
29 -3 29 4 0 13 37 15 44 2z m8886 -11 c0 -5 -2 -10 -4 -10 -3 0 -8 5 -11 10
-3 6 -1 10 4 10 6 0 11 -4 11 -10z m70 -4 c0 -2 -7 -6 -15 -10 -8 -3 -15 -1
-15 4 0 6 7 10 15 10 8 0 15 -2 15 -4z m-9180 -60 c0 -3 -4 -8 -10 -11 -5 -3
-10 -1 -10 4 0 6 5 11 10 11 6 0 10 -2 10 -4z m123 -410 c65 -27 126 -119 168
-256 32 -104 32 -288 -1 -405 -33 -117 -32 -130 8 -130 48 0 61 -22 207 -330
36 -77 77 -161 91 -186 43 -83 26 -241 -29 -266 -50 -23 -62 -7 -197 270 -139
285 -154 326 -145 390 8 61 -5 75 -41 41 -185 -173 -396 95 -370 471 9 143 47
255 110 331 67 80 126 101 199 70z m8732 -52 c27 -11 55 -79 55 -133 0 -116
-70 -181 -120 -112 -43 62 -32 212 17 219 14 2 20 8 16 18 -6 15 5 18 32 8z
m-2457 -217 c2 -10 -3 -17 -12 -17 -10 0 -16 9 -16 21 0 24 23 21 28 -4z m52
-62 c0 -8 4 -15 9 -15 5 0 17 -17 26 -37 10 -21 26 -50 36 -65 21 -28 24 -48
10 -48 -5 0 -12 13 -16 29 -3 16 -17 40 -31 54 -28 28 -59 97 -44 97 5 0 10
-7 10 -15z m2429 -54 c50 -10 72 -33 97 -101 9 -25 27 -69 40 -98 13 -29 24
-56 24 -61 0 -4 12 -36 26 -71 25 -62 25 -65 9 -99 -15 -32 -18 -34 -27 -16
-6 10 -19 39 -29 64 -38 99 -82 201 -85 198 -2 -1 -5 -205 -7 -452 -3 -248 -8
-458 -12 -467 -8 -20 -22 -22 -45 -8 -13 8 -16 50 -18 255 -3 205 -6 245 -18
245 -12 0 -14 -37 -14 -232 0 -128 -3 -243 -6 -255 -4 -16 -14 -23 -30 -23
-16 0 -25 7 -29 23 -3 12 -6 222 -8 467 -2 371 -4 445 -16 445 -11 0 -13 -32
-12 -177 l2 -178 -25 0 -26 0 0 218 c0 188 3 222 19 257 10 22 24 45 32 52 26
21 90 27 158 14z m552 4 c13 -4 19 -16 19 -35 0 -24 -5 -29 -35 -34 -20 -4
-39 -5 -44 -2 -4 3 -85 6 -180 6 l-171 2 0 28 c0 27 3 29 48 32 103 7 345 8
363 3z m-11 -354 c0 -132 -3 -246 -6 -255 -4 -10 -18 -16 -35 -16 l-29 0 0
255 0 255 35 0 35 0 0 -239z m-110 -101 l0 -170 -30 0 -30 0 0 170 0 170 30 0
30 0 0 -170z m-100 -85 l0 -85 -35 0 -35 0 0 78 c0 43 3 82 7 85 3 4 19 7 35
7 l28 0 0 -85z m-815 -320 c70 -381 230 -675 447 -817 58 -39 152 -68 221 -68
39 0 86 -28 50 -29 -10 -1 -37 -4 -59 -7 -97 -14 -255 58 -350 158 -187 199
-314 534 -354 938 -15 154 -10 218 6 80 8 -63 25 -178 39 -255z m715 270 c0
-32 -2 -35 -29 -35 -36 0 -41 7 -34 43 4 22 11 27 34 27 26 0 29 -3 29 -35z
m340 -141 c0 -20 -5 -34 -12 -35 -7 0 -26 -2 -43 -3 -16 -1 -56 -3 -87 -4
l-58 -2 0 -133 0 -134 30 5 c29 4 30 3 30 -32 l0 -36 -75 0 -75 0 0 35 c0 30
3 35 24 35 13 0 27 -6 29 -12 3 -7 6 51 6 130 l1 142 -57 2 c-32 1 -77 1 -99
0 -39 -1 -42 0 -48 29 -3 17 -3 35 0 41 4 5 92 8 220 7 l214 -2 0 -33z m-8549
-151 c-10 -17 -10 -17 -11 2 0 11 4 31 8 45 l7 25 3 -27 c2 -15 -1 -35 -7 -45z
m-51 -225 c-28 -93 -77 -220 -109 -278 -13 -25 -29 -54 -35 -65 -6 -11 -13
-22 -16 -25 -3 -3 -17 -21 -30 -40 -127 -181 -292 -277 -461 -268 -176 10
-329 135 -481 391 -15 27 -26 52 -23 57 3 5 1 11 -5 15 -5 3 -18 25 -28 48
-21 48 -37 106 -26 95 11 -12 74 -152 74 -167 0 -8 11 -29 25 -47 14 -18 25
-36 25 -39 0 -4 14 -24 30 -45 17 -21 30 -43 30 -50 0 -6 3 -9 8 -7 4 2 25
-17 47 -43 43 -49 140 -120 190 -138 110 -39 236 -39 315 -1 179 87 289 219
409 494 39 88 71 177 72 198 1 16 3 17 6 5 2 -9 -5 -50 -17 -90z m8800 -90
c-1 -18 -39 -102 -45 -96 -7 6 28 108 37 108 4 0 8 -6 8 -12z m-60 -148 c-6
-12 -14 -20 -17 -17 -2 3 1 14 8 26 17 26 24 19 9 -9z m-97 -155 c-3 -9 -8
-14 -10 -11 -3 3 -2 9 2 15 9 16 15 13 8 -4z m-6576 -47 c-3 -8 -6 -5 -6 6 -1
11 2 17 5 13 3 -3 4 -12 1 -19z m6483 -62 c0 -3 -4 -8 -10 -11 -5 -3 -10 -1
-10 4 0 6 5 11 10 11 6 0 10 -2 10 -4z m-58 -58 c-7 -7 -12 -8 -12 -2 0 14 12
26 19 19 2 -3 -1 -11 -7 -17z m-22 -12 c0 -11 -85 -60 -108 -61 -15 -1 -40 -6
-57 -10 -22 -5 -26 -4 -15 4 8 5 31 13 52 16 20 4 42 13 48 20 6 8 18 11 26 8
7 -3 17 2 20 11 5 13 34 24 34 12z m-6849 -1899 c-8 -8 -11 1 -11 29 0 53 14
67 18 19 2 -21 -1 -42 -7 -48z m-2971 -666 c94 -32 230 -137 305 -236 59 -78
79 -111 126 -210 73 -155 107 -277 140 -495 5 -36 12 -74 15 -85 4 -14 3 -17
-4 -10 -6 6 -20 60 -32 120 -66 330 -202 620 -361 769 -33 31 -66 56 -74 56
-8 0 -15 5 -15 10 0 6 -6 10 -14 10 -8 0 -30 8 -48 19 -42 24 -191 44 -238 32
-46 -12 -104 -33 -110 -40 -3 -3 -15 -12 -27 -19 -19 -10 -23 -10 -23 2 0 8
12 19 28 25 15 6 43 21 62 32 64 39 188 48 270 20z m10146 -1 c13 0 24 5 24
11 0 8 12 9 38 4 20 -5 45 -8 54 -9 9 0 14 -4 12 -8 -3 -4 8 -8 23 -8 33 0
124 -52 166 -93 15 -15 27 -30 27 -33 0 -5 -53 23 -155 81 -80 45 -217 62
-280 35 -16 -7 -34 -14 -40 -14 -9 -1 -39 -19 -84 -51 -42 -29 -163 -158 -201
-214 -96 -142 -187 -381 -229 -601 -50 -264 -53 -578 -7 -798 8 -40 13 -79 10
-86 -3 -8 -1 -17 5 -21 6 -3 11 -15 11 -25 0 -11 6 -39 14 -62 8 -24 22 -70
32 -103 17 -58 63 -169 86 -210 7 -11 19 -33 28 -50 45 -85 86 -140 154 -207
27 -27 46 -52 42 -55 -8 -8 -94 76 -102 100 -3 9 -9 15 -13 13 -4 -3 -16 9
-26 27 -11 18 -27 41 -37 51 -10 11 -18 23 -18 27 0 4 -18 39 -40 78 -22 39
-40 75 -40 81 0 6 -9 29 -19 53 -46 100 -92 284 -123 487 -18 121 -15 476 6
622 27 192 70 364 122 483 30 71 77 168 84 175 3 3 22 31 44 63 76 113 247
248 314 247 12 0 22 5 22 11 0 6 8 8 18 5 9 -3 24 -1 32 4 9 6 16 6 18 0 2 -6
15 -10 28 -10z m-10532 -107 c-10 -7 -32 -25 -47 -39 -15 -15 -31 -24 -34 -20
-4 4 4 14 17 23 12 9 32 27 43 39 11 13 25 21 30 17 6 -3 2 -12 -9 -20z
m10936 -93 c0 -5 -2 -10 -4 -10 -3 0 -8 5 -11 10 -3 6 -1 10 4 10 6 0 11 -4
11 -10z m-11050 -15 c-7 -9 -15 -13 -17 -11 -7 7 7 26 19 26 6 0 6 -6 -2 -15z
m-80 -115 c0 -5 -5 -10 -11 -10 -5 0 -7 5 -4 10 3 6 8 10 11 10 2 0 4 -4 4
-10z m-20 -34 c0 -3 -4 -8 -10 -11 -5 -3 -10 -1 -10 4 0 6 5 11 10 11 6 0 10
-2 10 -4z m-39 -59 c-10 -9 -11 -8 -5 6 3 10 9 15 12 12 3 -3 0 -11 -7 -18z
m10863 -187 c138 0 257 -4 263 -8 17 -11 19 -547 2 -568 -8 -10 -36 -14 -100
-14 l-89 0 6 43 c4 30 1 53 -9 73 -18 36 -87 99 -88 82 -4 -62 -21 -138 -30
-138 -13 0 -11 124 2 137 36 36 54 260 22 295 -21 24 -69 24 -82 -1 -31 -57
-21 -223 17 -281 13 -20 16 -40 12 -95 l-5 -70 -12 41 c-7 23 -13 58 -13 78 0
47 -15 46 -62 -4 -35 -37 -38 -44 -38 -99 l0 -59 -72 -7 c-44 -4 -84 -2 -100
4 l-28 11 0 284 c0 328 -5 310 94 301 32 -3 172 -5 310 -5z m-10125 -86 c17
-9 43 -32 56 -52 23 -33 25 -47 25 -139 0 -56 5 -113 11 -126 8 -17 8 -42 0
-88 -7 -35 -18 -103 -26 -150 -8 -48 -19 -99 -25 -113 -29 -77 -2 -127 86
-161 27 -10 61 -27 75 -38 40 -29 73 -103 77 -173 l4 -61 -177 -5 c-98 -2
-254 -2 -346 0 l-169 5 0 46 c0 57 22 126 53 164 12 15 55 43 95 61 86 39 106
62 99 114 -6 46 -32 177 -52 259 -17 68 -20 139 -6 147 4 3 10 54 13 113 5
112 13 139 56 186 21 22 34 27 72 27 26 0 61 -7 79 -16z m-379 -112 c58 -29
68 -59 71 -217 3 -117 0 -156 -19 -235 -12 -52 -25 -106 -28 -120 -7 -31 19
-63 60 -77 43 -14 42 -27 -4 -47 -68 -30 -96 -60 -116 -126 l-19 -61 -132 2
-133 1 0 42 c0 25 10 63 25 93 22 44 33 54 85 77 33 15 68 38 76 52 18 27 18
24 -21 208 -23 107 -26 134 -17 161 7 17 12 60 12 95 0 103 42 167 110 169 8
0 31 -8 50 -17z m6730 -287 c0 -5 -5 -3 -10 5 -5 8 -10 20 -10 25 0 6 5 3 10
-5 5 -8 10 -19 10 -25z m-3887 -130 c-3 -9 -8 -14 -10 -11 -3 3 -2 9 2 15 9
16 15 13 8 -4z m-1972 -340 c-6 -55 -19 -143 -31 -195 -11 -52 -26 -120 -32
-150 -6 -30 -15 -59 -19 -65 -3 -5 -10 -26 -14 -45 -12 -57 -129 -290 -181
-359 -41 -54 -122 -140 -166 -177 -25 -20 -73 -43 -123 -59 -60 -20 -213 -29
-231 -14 -6 5 -16 9 -20 8 -36 -9 -178 72 -237 135 -35 38 -107 132 -126 165
-27 49 -81 160 -81 168 0 6 52 -72 113 -172 7 -11 17 -24 23 -30 5 -5 34 -38
64 -73 53 -63 165 -152 192 -152 8 0 18 -4 24 -8 36 -32 208 -42 251 -15 12 8
27 12 33 8 5 -3 10 -2 10 2 0 5 34 31 76 58 41 27 96 72 122 100 49 53 102
128 102 144 0 5 4 11 8 13 16 6 100 192 135 298 51 154 89 380 105 630 l7 105
3 -110 c2 -60 -2 -155 -7 -210z m9440 254 c20 -20 21 -28 15 -123 -3 -55 -9
-118 -12 -138 -5 -34 -3 -39 19 -47 25 -10 37 -36 37 -83 0 -26 -3 -28 -42
-30 -103 -5 -158 -3 -161 7 -2 5 1 29 5 53 7 31 16 45 33 52 35 13 37 22 20
94 -16 68 -12 182 7 219 12 23 53 22 79 -4z m351 4 c23 -27 29 -128 13 -198
-21 -85 -19 -104 9 -116 24 -12 53 -87 38 -100 -4 -4 -51 -9 -106 -12 l-98 -6
7 46 c9 63 14 73 36 73 27 0 33 38 16 103 -18 68 -12 184 11 210 8 9 25 17 37
17 12 0 29 -8 37 -17z m-527 -128 c30 -23 39 -147 18 -251 -9 -44 -14 -87 -11
-96 4 -8 22 -22 42 -32 45 -21 66 -51 66 -93 l0 -33 -155 0 -155 0 0 38 c0 41
19 65 72 92 38 18 41 37 23 127 -20 97 -8 228 21 250 23 17 54 16 79 -2z m353
-13 c27 -27 36 -149 17 -227 -23 -97 -21 -112 23 -134 47 -24 70 -49 72 -81 4
-52 9 -50 -155 -50 l-155 0 0 24 c0 48 18 75 64 97 25 11 48 29 51 38 3 10 -3
52 -14 94 -16 63 -17 90 -10 147 5 39 13 79 19 90 14 26 64 26 88 2z m347 3
c27 -22 38 -139 19 -220 -13 -55 -19 -186 -8 -158 4 9 12 9 32 0 58 -24 81
-72 40 -80 -20 -4 -19 -4 5 -6 15 0 27 -5 27 -11 0 -6 -59 -10 -156 -10 l-156
0 7 33 c8 35 41 77 61 77 7 0 24 10 37 23 l25 22 -19 75 c-25 103 -18 240 15
262 17 12 49 9 71 -7z m-4031 -221 c9 -23 7 -36 -3 -30 -12 8 -21 46 -11 46 4
0 11 -7 14 -16z m73 -156 c-3 -8 -6 -5 -6 6 -1 11 2 17 5 13 3 -3 4 -12 1 -19z
m-500 -255 c-1 -49 -3 -9 -3 87 0 96 2 136 3 88 2 -49 2 -127 0 -175z m-92
-350 c47 -78 52 -82 80 -77 24 3 34 -1 49 -22 28 -39 32 -107 11 -155 -16 -35
-22 -40 -48 -37 -17 2 -32 9 -35 16 -3 11 0 12 18 2 33 -18 62 15 67 77 5 56
-13 97 -44 101 -35 5 -56 -38 -51 -104 3 -30 1 -49 -3 -42 -5 7 -9 40 -9 74 0
52 -6 73 -50 158 l-50 98 2 256 2 257 6 -260 5 -260 50 -82z m-4463 247 c10
-11 21 -20 25 -20 24 1 53 44 53 78 0 18 8 21 66 24 36 1 68 0 70 -4 8 -13
-19 -21 -70 -19 l-51 1 -13 -43 c-16 -51 -29 -67 -52 -67 -33 0 -54 37 -56
103 -2 57 -2 58 4 15 4 -26 15 -57 24 -68z m298 70 c0 -5 -4 -10 -10 -10 -5 0
-10 5 -10 10 0 6 5 10 10 10 6 0 10 -4 10 -10z m4315 -143 c18 -31 37 -67 40
-78 4 -12 18 -37 31 -56 13 -20 24 -43 23 -52 0 -10 -4 -7 -10 8 -5 13 -18 35
-28 50 -22 31 -111 201 -110 210 0 7 8 -4 54 -82z m3776 -285 c11 -11 37 -24
58 -30 21 -7 48 -21 61 -32 l23 -20 -25 0 c-13 0 -34 9 -46 21 -12 11 -27 17
-32 14 -12 -7 -82 50 -73 59 9 9 12 8 34 -12z m-3281 -12 c0 -5 -7 -10 -16
-10 -8 0 -12 5 -9 10 3 6 10 10 16 10 5 0 9 -4 9 -10z m3588 -71 c-5 -14 -89
-24 -125 -14 -42 10 -17 20 57 23 52 2 71 -1 68 -9z m-7218 -2043 c0 -18 6
-25 23 -28 18 -2 23 -10 25 -40 3 -35 1 -38 -22 -38 -24 0 -26 4 -26 40 0 29
-4 40 -15 40 -15 0 -21 31 -8 43 13 14 23 6 23 -17z m-1323 -148 c-3 -8 -6 -5
-6 6 -1 11 2 17 5 13 3 -3 4 -12 1 -19z m355 -175 c-3 -16 -7 -22 -10 -15 -4
13 4 42 11 42 2 0 2 -12 -1 -27z m-52 -153 c0 -11 -7 -20 -15 -20 -18 0 -19
12 -3 28 16 16 18 15 18 -8z m-237 -20 c3 -11 1 -23 -4 -26 -5 -3 -9 6 -9 20
0 31 6 34 13 6z m34 -347 c-2 -16 -4 -5 -4 22 0 28 2 40 4 28 2 -13 2 -35 0
-50z m-1428 -2447 c15 -59 -1 -116 -33 -116 -33 0 -55 29 -62 83 -5 37 -2 52
16 82 l22 36 23 -21 c13 -12 28 -41 34 -64z m6494 -953 c-7 -2 -21 -2 -30 0
-10 3 -4 5 12 5 17 0 24 -2 18 -5z m164 -255 c-3 -8 -6 -5 -6 6 -1 11 2 17 5
13 3 -3 4 -12 1 -19z m-2747 -48 c0 -5 -11 -10 -25 -10 -14 0 -25 5 -25 10 0
6 11 10 25 10 14 0 25 -4 25 -10z m4055 -250 c4 -6 -5 -10 -19 -10 -14 0 -26
5 -26 10 0 6 9 10 19 10 11 0 23 -4 26 -10z m-6185 -1465 l0 -35 -50 0 c-43 0
-50 3 -50 19 0 41 11 51 56 51 44 0 44 0 44 -35z"/>
<path d="M6838 16693 c-41 -10 -46 -124 -7 -159 19 -17 21 -17 40 2 25 26 35
85 19 123 -13 32 -25 40 -52 34z"/>
<path d="M8340 16115 c-13 -39 -6 -88 14 -104 39 -32 77 44 52 103 -20 48 -50
49 -66 1z"/>
<path d="M8581 15754 c0 -11 3 -14 6 -6 3 7 2 16 -1 19 -3 4 -6 -2 -5 -13z"/>
<path d="M8166 15697 c-25 -18 -20 -113 7 -109 9 2 17 -2 17 -9 0 -8 4 -8 15
1 18 15 20 101 3 118 -15 15 -20 15 -42 -1z m27 -45 c17 -18 14 -28 -15 -51
-17 -12 -18 -10 -18 28 0 45 8 51 33 23z"/>
<path d="M7040 15661 c-16 -31 -12 -106 8 -131 32 -40 72 0 72 73 0 63 -56
103 -80 58z"/>
<path d="M6514 15572 c-24 -16 -36 -55 -30 -95 8 -48 21 -67 48 -67 44 0 60
116 22 155 -17 17 -24 18 -40 7z"/>
<path d="M7296 15235 c4 -11 26 -58 50 -106 l44 -85 0 -572 c0 -527 1 -572 17
-572 40 0 149 24 155 34 4 6 8 209 8 451 l0 440 44 90 c44 91 48 108 22 86
-11 -9 -15 -6 -19 15 -3 15 0 40 5 56 16 45 -25 115 -87 149 -32 18 -147 37
-207 35 -33 -1 -37 -4 -32 -21z"/>
<path d="M7224 15233 c6 -19 4 -23 -14 -23 -12 0 -34 -7 -48 -15 -15 -8 -47
-24 -72 -35 -25 -11 -67 -33 -95 -50 -27 -16 -56 -27 -64 -25 -25 10 -2 -45
130 -295 l129 -247 0 -357 c0 -385 0 -385 52 -353 13 8 40 20 60 27 71 22 68
-7 68 604 l0 549 -45 86 c-47 88 -114 178 -101 134z"/>
<path d="M6860 15043 c0 -13 -4 -23 -10 -23 -16 0 -99 -64 -99 -77 -1 -7 -6
-13 -11 -13 -6 0 -29 -13 -52 -30 -30 -22 -44 -27 -54 -19 -25 21 7 -63 68
-181 34 -63 81 -153 106 -200 24 -47 48 -90 52 -95 5 -6 38 -66 74 -133 l66
-124 0 -228 c0 -126 4 -231 8 -234 13 -8 136 93 149 122 9 19 12 126 13 376
l0 349 -49 91 c-49 93 -86 159 -127 231 -13 22 -36 64 -51 93 -16 30 -40 68
-55 85 -26 30 -27 31 -28 10z"/>
<path d="M7639 14888 l-44 -73 -3 -265 c-1 -146 1 -346 5 -445 l8 -180 79 -14
c64 -11 80 -11 86 0 5 7 7 116 6 243 -3 230 -3 231 22 279 14 26 22 50 19 54
-4 3 -7 -2 -7 -13 -2 -44 -49 78 -66 169 -10 53 -22 97 -26 97 -4 0 -8 11 -8
24 0 14 -4 36 -9 49 -6 14 -11 52 -13 86 -2 33 -3 61 -4 61 0 0 -21 -33 -45
-72z"/>
<path d="M4857 14842 c-25 -27 -23 -116 3 -142 36 -36 70 1 70 78 0 40 -23 82
-44 82 -7 0 -20 -8 -29 -18z"/>
<path d="M6580 14813 c0 -5 -25 -35 -55 -68 -30 -33 -55 -63 -55 -66 0 -3 -12
-20 -27 -36 -16 -17 -38 -44 -51 -59 -12 -16 -35 -45 -50 -64 -38 -48 -102
-139 -102 -145 0 -3 -28 -63 -62 -132 -62 -125 -69 -154 -47 -195 9 -16 29
-18 193 -18 l184 0 31 -50 c17 -28 31 -53 31 -57 0 -3 26 -54 59 -112 99 -179
134 -244 153 -283 11 -22 26 -38 36 -38 26 0 135 127 149 174 8 27 13 113 13
250 l0 209 -31 61 c-17 33 -35 66 -40 72 -5 6 -24 42 -43 80 -39 81 -218 404
-249 451 -21 31 -37 42 -37 26z"/>
<path d="M9790 14479 c-10 -17 -9 -20 7 -19 35 4 43 0 43 -25 0 -14 5 -25 10
-25 13 0 13 46 0 71 -14 25 -46 24 -60 -2z"/>
<path d="M9890 14433 c0 -22 2 -25 10 -13 13 20 13 40 0 40 -5 0 -10 -12 -10
-27z"/>
<path d="M7825 14382 c-18 -25 -20 -45 -23 -242 -2 -118 -1 -224 2 -236 4 -16
24 -28 76 -48 39 -14 75 -26 81 -26 5 0 9 16 9 35 0 19 -5 34 -10 33 -6 -2
-19 22 -29 52 -94 280 -116 383 -91 429 17 32 8 34 -15 3z"/>
<path d="M5526 14198 c-9 -12 -16 -41 -16 -63 0 -73 54 -114 78 -60 25 56 5
145 -33 145 -8 0 -21 -10 -29 -22z"/>
<path d="M6083 14015 c18 -60 19 -77 6 -86 -11 -7 -10 -9 4 -9 9 0 17 -2 17
-4 0 -2 -16 -30 -35 -62 -19 -32 -35 -68 -35 -80 0 -12 -7 -27 -15 -34 -8 -7
-15 -18 -15 -25 0 -8 -6 -15 -12 -18 -23 -8 244 -20 329 -14 l84 5 23 -47 c12
-25 37 -73 56 -106 51 -92 63 -113 114 -207 26 -49 51 -88 55 -88 7 0 66 88
114 167 l19 33 -50 92 c-27 51 -78 146 -112 211 -34 65 -73 135 -86 154 -13
20 -27 47 -30 60 l-6 24 -194 -3 c-174 -3 -195 -1 -200 14 -2 9 -12 22 -21 30
-14 11 -15 10 -10 -7z"/>
<path d="M7480 13858 c-36 -5 -70 -15 -75 -22 -6 -8 -26 -14 -45 -14 -48 1
-150 -46 -157 -72 -4 -13 -14 -20 -31 -20 -33 0 -149 -87 -157 -118 -3 -12
-16 -27 -29 -32 -36 -13 -113 -99 -139 -152 -12 -27 -27 -48 -33 -48 -22 0
-117 -154 -129 -209 -4 -17 -15 -35 -25 -41 -18 -9 -88 -169 -109 -247 -7 -24
-16 -43 -21 -43 -6 0 -10 -6 -10 -12 0 -7 -6 -25 -14 -39 -20 -39 -56 -164
-56 -196 0 -15 -7 -41 -16 -58 -23 -44 -64 -222 -64 -278 0 -26 -6 -60 -14
-75 -16 -33 -36 -184 -36 -280 0 -39 -5 -83 -10 -98 -15 -38 -22 -468 -10
-584 5 -52 11 -133 13 -180 5 -103 27 -261 38 -274 5 -6 9 -29 9 -52 0 -58 50
-285 66 -302 8 -7 14 -28 14 -45 0 -62 20 -115 103 -267 34 -63 79 -183 92
-246 3 -18 15 -40 26 -50 10 -9 19 -25 19 -35 0 -28 111 -201 132 -207 10 -2
21 -16 25 -31 8 -33 34 -70 50 -71 6 0 14 19 18 43 4 23 15 87 26 142 30 152
35 218 16 236 -48 49 -182 309 -241 469 -258 701 -243 1655 36 2305 89 207
148 307 264 451 175 217 370 324 589 323 218 0 394 -100 594 -337 25 -28 49
-52 55 -52 6 0 5 5 -2 12 -7 7 -12 20 -12 29 0 9 -7 20 -16 23 -10 4 -14 12
-10 22 4 9 -4 35 -18 58 -13 23 -37 84 -51 136 -15 52 -31 104 -36 115 -28 64
-69 194 -75 235 -5 40 -10 49 -28 52 -11 2 -25 13 -30 24 -9 21 -30 34 -108
68 -28 13 -43 14 -57 6 -16 -8 -23 -6 -33 8 -8 12 -37 23 -81 32 -62 11 -70
11 -87 -5 -18 -16 -22 -16 -37 -3 -14 11 -31 13 -83 6z"/>
<path d="M6005 13620 c-25 -4 -31 -8 -16 -9 23 -1 24 -2 16 -83 -4 -48 -13
-90 -21 -99 -8 -8 -14 -36 -14 -60 0 -32 -6 -49 -20 -62 -39 -33 -24 -38 107
-35 l127 3 3 32 c2 18 15 52 28 75 14 24 25 51 25 61 0 10 7 20 15 23 8 4 15
17 15 30 0 15 6 24 16 24 11 0 15 6 12 18 -3 11 2 23 13 30 27 17 29 15 29
-18 0 -16 -4 -30 -10 -30 -5 0 -15 -19 -22 -42 -7 -24 -18 -49 -24 -55 -7 -7
-15 -31 -19 -53 -4 -22 -11 -40 -16 -40 -5 0 -9 -9 -9 -20 0 -11 -4 -20 -10
-20 -5 0 -10 -4 -10 -10 0 -5 30 -10 66 -12 l66 -3 45 -85 c25 -47 61 -115 80
-152 19 -38 41 -68 49 -68 8 0 14 5 14 10 0 6 21 56 46 111 34 75 44 105 37
122 -7 20 -79 157 -184 352 l-38 70 -178 1 c-98 1 -196 -2 -218 -6z"/>
<path d="M4587 13362 c-25 -28 -31 -85 -13 -121 19 -35 36 -39 59 -13 29 32
16 133 -18 146 -7 2 -20 -3 -28 -12z"/>
<path d="M5421 13306 c-32 -38 -19 -146 18 -146 30 0 43 17 48 61 6 70 -34
123 -66 85z"/>
<path d="M5980 13199 c-63 -4 -128 -7 -144 -8 -36 -1 -26 -15 12 -15 30 -1 32
-4 32 -45 0 -27 -3 -30 -50 -36 -50 -7 -50 -7 -50 -45 0 -21 -7 -43 -15 -50
-8 -7 -14 -24 -13 -39 2 -31 -9 -54 -22 -46 -5 3 -12 -7 -16 -22 -3 -15 -15
-62 -26 -103 -12 -41 -21 -92 -22 -112 -1 -21 -7 -43 -14 -50 -6 -6 -12 -22
-12 -35 0 -13 -5 -23 -11 -23 -5 0 -7 -4 -4 -10 11 -17 20 -11 40 28 11 20 47
87 80 148 33 61 73 136 90 167 l30 56 120 3 c66 2 148 1 183 -2 l64 -5 64
-115 c34 -63 73 -136 85 -162 12 -27 26 -48 29 -48 8 0 90 240 90 262 0 16 0
15 -128 247 l-35 64 -96 -5 c-52 -3 -107 -3 -121 1 -14 3 -77 3 -140 0z m210
-33 c0 -8 -7 -16 -15 -20 -8 -3 -15 -15 -15 -26 0 -12 -11 -42 -25 -68 -14
-26 -25 -53 -25 -59 0 -7 -5 -13 -10 -13 -11 0 -9 10 15 107 7 28 11 54 8 57
-3 2 1 12 8 20 18 19 59 21 59 2z"/>
<path d="M10666 13175 c3 -11 10 -36 14 -55 l8 -35 1 36 c0 19 -6 44 -15 55
-15 19 -16 19 -8 -1z"/>
<path d="M7210 13150 c0 -5 5 -10 10 -10 6 0 10 5 10 10 0 6 -4 10 -10 10 -5
0 -10 -4 -10 -10z"/>
<path d="M7155 13107 c-10 -8 -15 -21 -12 -33 4 -16 5 -15 6 5 1 16 5 21 16
18 8 -4 17 -2 20 3 9 15 -11 20 -30 7z"/>
<path d="M8010 13112 c0 -5 7 -15 15 -22 8 -7 15 -8 15 -2 0 5 -7 15 -15 22
-8 7 -15 8 -15 2z"/>
<path d="M7103 13060 c-22 -17 -30 -49 -17 -63 7 -7 46 63 42 75 -2 3 -13 -2
-25 -12z"/>
<path d="M8081 13038 c-1 -26 10 -48 25 -48 8 0 14 5 14 10 0 6 -4 10 -8 10
-5 0 -14 10 -20 23 -8 16 -11 18 -11 5z"/>
<path d="M8261 13014 c0 -11 3 -14 6 -6 3 7 2 16 -1 19 -3 4 -6 -2 -5 -13z"/>
<path d="M7004 12943 c-62 -85 -70 -98 -96 -153 -11 -25 -32 -62 -45 -83 -16
-26 -22 -45 -17 -60 6 -21 7 -20 29 7 12 16 28 47 35 70 23 77 54 125 91 138
8 3 21 26 28 49 11 35 15 40 21 25 6 -18 7 -18 13 -2 10 25 9 38 -3 31 -14 -9
-12 19 2 33 7 7 8 12 2 12 -6 0 -32 -30 -60 -67z"/>
<path d="M8146 12960 c3 -14 12 -32 19 -40 12 -13 30 -56 50 -115 5 -16 8 -17
15 -5 6 8 10 11 11 5 1 -5 2 -14 4 -20 1 -5 3 -16 3 -22 1 -7 8 -13 16 -13 17
0 26 -22 26 -63 0 -37 8 -51 33 -60 9 -3 17 -11 17 -17 0 -6 -4 -8 -10 -5 -15
10 -11 -38 5 -59 8 -11 15 -28 15 -38 0 -19 20 -21 32 -3 4 6 5 -13 2 -40 -5
-44 -3 -56 20 -89 14 -21 26 -47 26 -57 0 -21 16 -26 23 -6 3 6 4 -9 2 -34 -1
-25 3 -56 10 -69 l13 -23 6 21 c4 12 0 48 -8 79 -9 32 -18 69 -22 83 -13 54
-14 56 -25 40 -7 -11 -8 -8 -3 12 3 16 -1 42 -11 65 -41 91 -47 107 -66 160
-20 60 -106 209 -148 258 -14 17 -34 42 -44 55 l-18 25 7 -25z"/>
<path d="M5862 12872 c-10 -20 -39 -75 -64 -122 -25 -47 -66 -123 -90 -170
-33 -62 -52 -86 -69 -90 -22 -5 -25 -12 -31 -88 -4 -45 -9 -86 -13 -92 -3 -5
-8 -90 -11 -187 -3 -102 -10 -188 -17 -201 -8 -18 -8 -25 2 -31 7 -4 166 -8
354 -7 l341 1 12 25 c13 26 44 269 37 283 -2 4 -132 7 -287 7 l-284 0 -6 -33
c-8 -41 -46 -80 -69 -71 -9 3 -26 22 -38 41 -41 65 -12 205 43 211 22 3 32 -3
48 -30 11 -18 20 -41 20 -50 0 -17 20 -18 283 -18 258 0 285 2 299 18 16 19
68 240 68 291 0 24 -25 81 -85 192 l-86 156 -169 1 -169 1 -19 -37z"/>
<path d="M7510 12760 c-9 -6 -10 -10 -3 -10 6 0 15 5 18 10 8 12 4 12 -15 0z"/>
<path d="M8257 12724 c-4 -4 -7 -17 -7 -28 0 -19 1 -19 17 -3 12 11 14 20 7
27 -6 6 -13 7 -17 4z"/>
<path d="M6817 12620 c-47 -107 -54 -126 -50 -138 3 -7 0 -19 -6 -26 -17 -20
-32 -76 -20 -76 5 0 9 6 9 14 0 7 7 19 15 26 8 7 15 28 15 47 0 20 9 46 20 60
11 14 20 36 20 49 0 25 15 33 23 12 3 -7 5 -4 6 7 0 11 -4 29 -9 40 -7 18 -9
17 -23 -15z"/>
<path d="M11572 12540 c-15 -24 -16 -94 -2 -121 12 -22 43 -25 57 -6 19 23 23
78 8 113 -16 39 -43 45 -63 14z"/>
<path d="M4196 12471 c-11 -12 -18 -36 -18 -64 0 -58 17 -89 45 -85 32 4 49
45 41 98 -9 70 -34 88 -68 51z"/>
<path d="M7108 12483 c7 -3 16 -2 19 1 4 3 -2 6 -13 5 -11 0 -14 -3 -6 -6z"/>
<path d="M8140 12480 c8 -5 20 -10 25 -10 6 0 3 5 -5 10 -8 5 -19 10 -25 10
-5 0 -3 -5 5 -10z"/>
<path d="M7020 12469 c0 -5 5 -7 10 -4 6 3 10 8 10 11 0 2 -4 4 -10 4 -5 0
-10 -5 -10 -11z"/>
<path d="M8187 12441 c3 -12 9 -21 14 -21 14 0 11 16 -5 29 -12 10 -13 8 -9
-8z"/>
<path d="M8217 12379 c4 -13 8 -18 11 -10 2 7 -1 18 -6 23 -8 8 -9 4 -5 -13z"/>
<path d="M6720 12351 c-12 -24 -14 -59 -1 -45 10 10 24 64 17 64 -3 0 -10 -9
-16 -19z"/>
<path d="M8232 12320 c0 -14 2 -19 5 -12 2 6 2 18 0 25 -3 6 -5 1 -5 -13z"/>
<path d="M5650 12281 c-24 -45 -4 -131 29 -131 26 0 41 29 41 77 -1 63 -46 98
-70 54z"/>
<path d="M6692 12253 c-6 -20 -9 -39 -7 -42 3 -2 5 2 5 10 0 11 2 11 10 -1 7
-11 10 -4 10 28 0 23 -1 42 -3 42 -2 0 -9 -17 -15 -37z"/>
<path d="M7508 12280 c12 -5 22 -16 22 -24 0 -34 78 -35 109 -2 13 14 35 27
50 29 20 3 17 4 -11 6 -20 0 -40 -4 -44 -10 -3 -6 -22 -9 -40 -7 -19 2 -34 0
-34 -5 0 -4 -5 -5 -10 -2 -6 4 -8 11 -5 16 4 5 -9 9 -27 8 -30 0 -31 -1 -10
-9z"/>
<path d="M7640 12240 c0 -5 5 -10 10 -10 6 0 10 5 10 10 0 6 -4 10 -10 10 -5
0 -10 -4 -10 -10z"/>
<path d="M8480 12145 c0 -21 5 -34 12 -32 7 1 16 -30 24 -86 7 -48 16 -92 19
-98 4 -5 9 -132 12 -283 4 -199 3 -275 -6 -280 -6 -4 -11 -27 -11 -52 0 -24
-4 -44 -10 -44 -5 0 -10 -18 -10 -40 0 -22 -8 -57 -17 -78 l-17 -37 -4 33 c-3
26 -8 32 -27 32 -21 0 -24 -5 -28 -47 -2 -27 -4 -9 -5 43 -1 50 -5 94 -9 97
-3 4 -8 44 -10 89 -7 138 -23 117 -23 -29 0 -72 -2 -137 -5 -145 -3 -8 -21
-13 -48 -12 l-42 1 -3 252 c-1 156 -6 251 -12 251 -7 0 -10 -221 -10 -622 0
-389 -4 -637 -10 -659 -13 -46 -33 -63 -63 -55 -44 11 -47 36 -47 391 0 291
-2 335 -15 335 -12 0 -15 -20 -16 -112 -1 -62 -3 -212 -5 -333 -1 -122 -7
-232 -13 -247 -12 -32 -53 -47 -76 -28 -32 27 -35 86 -35 709 0 343 -2 622 -5
619 -3 -3 -5 -198 -6 -435 0 -236 -5 -469 -10 -519 -6 -49 -15 -192 -19 -319
-10 -266 -19 -361 -55 -578 -15 -87 -25 -161 -22 -164 5 -5 47 14 57 26 3 3
24 18 46 33 83 53 205 186 279 303 173 272 280 599 331 1010 18 149 25 529 12
685 -9 109 -45 341 -58 375 -6 15 -10 40 -10 56 0 19 -5 29 -15 29 -10 0 -15
-11 -15 -35z"/>
<path d="M6666 12154 c-7 -18 -8 -100 -1 -93 5 6 16 109 11 109 -2 0 -7 -7
-10 -16z"/>
<path d="M7000 12072 c0 -6 7 -17 15 -26 25 -24 17 -35 -27 -39 -24 -2 16 -3
87 -3 106 0 116 1 55 6 -64 5 -69 6 -35 11 l40 6 -47 1 c-37 2 -51 7 -67 28
-12 15 -21 22 -21 16z"/>
<path d="M8030 12055 c0 -13 31 -36 41 -33 7 2 0 12 -15 21 -14 10 -26 15 -26
12z"/>
<path d="M7140 12041 c0 -6 5 -13 10 -16 6 -3 10 1 10 9 0 9 -4 16 -10 16 -5
0 -10 -4 -10 -9z"/>
<path d="M8155 12041 c-6 -5 -21 -11 -35 -14 -14 -3 -6 -4 18 -4 27 1 42 5 42
14 0 15 -12 17 -25 4z"/>
<path d="M8033 12003 c37 -2 96 -2 130 0 34 2 4 3 -68 3 -71 0 -99 -1 -62 -3z"/>
<path d="M7894 11740 c0 -129 2 -182 3 -117 2 64 2 170 0 235 -1 64 -3 11 -3
-118z"/>
<path d="M6621 11878 c-7 -40 -13 -113 -15 -163 -2 -49 -7 -149 -11 -222 -8
-140 5 -369 31 -553 34 -236 124 -541 213 -721 53 -108 132 -239 143 -239 9 0
12 12 38 190 12 80 24 156 27 168 5 22 4 23 -15 11 -31 -19 -67 1 -76 41 -3
18 -6 315 -6 661 0 405 -3 629 -10 629 -6 0 -11 -96 -12 -252 l-3 -253 -40 -5
c-45 -6 -55 -31 -16 -40 33 -7 43 -47 39 -153 l-3 -82 -80 0 -80 0 -3 40 c-2
22 -8 44 -13 50 -5 5 -9 28 -9 52 0 30 -4 43 -14 43 -17 0 -26 22 -26 60 0 16
-4 32 -10 35 -5 3 -10 26 -10 51 0 24 -4 44 -8 44 -12 0 -32 228 -32 355 0 61
5 157 10 214 5 58 8 106 6 108 -2 2 -8 -29 -15 -69z"/>
<path d="M7423 11831 c1 -21 5 -37 10 -34 11 6 9 73 -3 73 -5 0 -9 -18 -7 -39z"/>
<path d="M7760 11856 c0 -8 5 -18 10 -21 6 -3 10 1 10 9 0 8 -4 18 -10 21 -5
3 -10 -1 -10 -9z"/>
<path d="M8362 11820 c0 -14 2 -19 5 -12 2 6 2 18 0 25 -3 6 -5 1 -5 -13z"/>
<path d="M5565 11817 c-11 -9 -15 -19 -10 -26 13 -22 5 -213 -10 -243 -10 -21
-10 -30 -2 -35 16 -11 698 -16 708 -6 4 4 11 79 15 166 l7 157 -345 0 c-273 0
-348 -3 -363 -13z"/>
<path d="M6819 11548 c-1 -193 -3 -231 -14 -278 -4 -18 -3 -21 4 -10 7 10 11
-1 14 -40 2 -30 4 74 5 233 1 158 0 287 -3 287 -3 0 -6 -87 -6 -192z"/>
<path d="M7230 11668 c-3 -89 1 -412 5 -416 3 -3 5 92 5 211 0 120 -2 217 -5
217 -3 0 -5 -6 -5 -12z"/>
<path d="M5695 11450 c-142 -5 -174 -12 -156 -33 5 -7 11 -143 12 -319 l3
-307 24 -6 c13 -3 135 -8 271 -11 l248 -5 15 23 c8 13 48 86 88 162 l74 140
-2 125 c-1 69 -5 149 -8 178 l-6 52 -212 3 c-116 2 -274 1 -351 -2z"/>
<path d="M7071 10766 c1 -232 4 -293 12 -266 6 20 12 149 14 301 3 233 2 266
-12 266 -13 0 -15 -37 -14 -301z"/>
<path d="M8868 10915 c-15 -77 -24 -152 -22 -166 6 -25 6 -26 62 -16 60 10 84
23 66 35 -16 11 -63 160 -72 228 l-8 59 -26 -140z"/>
<path d="M6204 10911 c-37 -71 -75 -139 -83 -150 -15 -19 -30 -20 -271 -25
-257 -4 -298 -9 -281 -30 5 -6 11 -36 14 -66 16 -164 28 -256 37 -289 5 -20
10 -57 10 -82 l0 -47 43 -6 c23 -3 84 -6 135 -7 l94 -2 56 57 c58 58 85 76
144 95 30 10 42 28 126 184 63 120 92 184 92 208 1 54 -33 289 -41 289 -4 0
-38 -58 -75 -129z"/>
<path d="M4026 10965 c-33 -51 -11 -155 33 -155 40 0 58 131 23 163 -25 23
-37 21 -56 -8z"/>
<path d="M5417 10812 c-22 -25 -22 -84 1 -112 28 -34 39 -18 36 51 -3 71 -13
88 -37 61z"/>
<path d="M6246 10536 c-42 -79 -76 -149 -76 -155 0 -6 15 -11 33 -11 17 0 59
-12 92 -25 33 -14 65 -25 72 -25 7 0 18 18 24 40 11 35 9 56 -15 163 -35 153
-36 157 -45 157 -5 0 -42 -65 -85 -144z"/>
<path d="M6396 10313 c-4 -10 1 -24 13 -37 25 -25 35 -17 26 23 -7 34 -29 41
-39 14z"/>
<path d="M5662 10163 c-17 -3 -22 -9 -17 -21 7 -18 23 -109 32 -184 6 -50 4
-49 69 -52 11 -1 24 19 39 59 12 33 39 91 59 128 20 38 36 71 36 73 0 5 -188
3 -218 -3z"/>
<path d="M5723 9847 c-21 -9 -22 -11 -6 -41 l16 -31 9 25 c15 40 7 59 -19 47z"/>
<path d="M7110 9835 c7 -9 15 -13 17 -11 7 7 -7 26 -19 26 -6 0 -6 -6 2 -15z"/>
<path d="M5731 9754 c0 -11 3 -14 6 -6 3 7 2 16 -1 19 -3 4 -6 -2 -5 -13z"/>
<path d="M5633 9749 c-6 -8 -22 -34 -36 -58 l-25 -43 34 -73 c19 -41 34 -78
34 -84 0 -18 18 -22 44 -10 14 7 26 15 26 18 -1 7 -13 56 -30 116 -6 22 -17
64 -23 94 -10 43 -15 51 -24 40z"/>
<path d="M7023 9728 c2 -7 10 -12 16 -10 6 1 11 -2 11 -8 0 -5 -4 -10 -9 -10
-14 0 -21 -40 -22 -129 -1 -44 -5 -81 -10 -81 -5 0 -9 -12 -9 -27 0 -16 -7
-37 -15 -47 -20 -26 -19 -33 4 -39 10 -2 25 -17 32 -33 22 -44 39 -42 39 5 0
22 5 43 10 46 6 3 10 24 10 46 0 28 4 39 15 39 14 0 21 43 16 87 -1 7 6 24 15
37 15 24 15 27 -5 55 -38 53 -111 105 -98 69z"/>
<path d="M6670 9573 c0 -81 4 -153 8 -160 11 -18 96 -53 105 -44 4 4 8 43 9
87 l2 79 -52 77 c-29 42 -52 81 -52 87 0 5 -4 13 -10 16 -6 4 -10 -46 -10
-142z"/>
<path d="M7308 9493 c7 -3 16 -2 19 1 4 3 -2 6 -13 5 -11 0 -14 -3 -6 -6z"/>
<path d="M6809 9453 c-2 -47 2 -88 10 -95 3 -4 16 -5 29 -1 33 8 38 46 12 88
-26 42 -50 46 -51 8z"/>
<path d="M7360 9451 c0 -6 9 -15 20 -21 13 -7 20 -7 20 -1 0 6 -9 15 -20 21
-13 7 -20 7 -20 1z"/>
<path d="M11451 9417 c-15 -15 -14 -30 2 -24 10 4 13 -7 13 -43 -1 -26 -4 -46
-8 -44 -4 2 -9 0 -12 -5 -9 -13 32 -21 42 -7 18 23 22 49 12 86 -11 41 -31 55
-49 37z"/>
<path d="M7418 9403 c6 -2 18 -2 25 0 6 3 1 5 -13 5 -14 0 -19 -2 -12 -5z"/>
<path d="M11432 9350 c0 -14 2 -19 5 -12 2 6 2 18 0 25 -3 6 -5 1 -5 -13z"/>
<path d="M6946 9260 c-5 -30 -10 -115 -10 -188 -1 -104 -5 -135 -16 -142 -8
-5 -17 -7 -21 -4 -17 10 -20 -48 -12 -209 4 -95 7 -192 7 -217 -1 -31 1 -39 6
-25 11 28 18 6 22 -71 3 -41 10 -67 21 -78 16 -16 17 -4 16 201 0 131 -4 210
-9 198 -6 -14 -9 -15 -9 -4 -1 8 4 20 9 25 7 7 9 110 8 290 -2 211 -5 266 -12
224z m4 -412 c0 -51 -3 -68 -10 -58 -13 20 -13 130 0 130 6 0 10 -31 10 -72z"/>
<path d="M4898 9276 c-16 -5 -30 -18 -33 -28 -3 -10 -8 -27 -11 -38 -4 -17 -1
-20 24 -20 16 0 43 3 59 6 24 5 29 10 26 28 -3 12 -12 31 -21 42 -14 17 -21
19 -44 10z"/>
<path d="M8141 9276 c-6 -7 -38 -33 -71 -57 -46 -33 -63 -53 -70 -80 -6 -21
-9 -177 -7 -378 l4 -342 55 -107 c31 -59 79 -145 107 -191 28 -46 51 -88 51
-93 0 -4 17 -5 38 -2 33 5 41 3 54 -18 8 -13 19 -39 23 -58 7 -33 8 -33 24
-15 31 38 84 76 97 71 10 -4 14 4 14 27 0 21 -39 107 -116 257 -64 124 -122
232 -130 240 -41 47 -44 77 -44 425 0 185 -4 335 -9 335 -5 0 -14 -6 -20 -14z"/>
<path d="M6997 9263 c-8 -15 -7 -142 2 -165 8 -20 10 -18 16 23 4 25 5 57 3
70 -2 18 1 24 15 23 23 -2 22 11 -3 36 -22 22 -27 24 -33 13z"/>
<path d="M7910 9124 c-30 -14 -67 -26 -81 -27 -16 -1 -28 -8 -29 -17 -1 -8 -2
-253 -1 -545 l0 -530 63 -110 c35 -61 72 -123 83 -138 20 -28 21 -28 60 -12
70 28 130 59 138 72 5 8 18 11 30 8 21 -6 22 -3 24 82 l1 88 -61 119 c-33 66
-82 158 -109 205 l-48 86 0 367 c0 202 -4 369 -8 372 -5 3 -33 -6 -62 -20z"/>
<path d="M5659 9128 c-1 -7 -1 -38 0 -68 1 -56 11 -77 30 -66 14 9 14 63 0 71
-5 4 -9 21 -7 37 2 18 -2 33 -9 35 -7 3 -13 -1 -14 -9z"/>
<path d="M7746 9051 c-10 -10 -16 -35 -16 -62 0 -24 -9 -91 -20 -149 -33 -168
-39 -227 -40 -360 -1 -69 -8 -163 -16 -210 -27 -163 -54 -422 -54 -520 l0
-100 24 10 c13 4 57 12 97 16 41 3 79 10 84 15 6 4 34 9 63 11 63 4 64 -5 -24
168 l-64 125 0 532 c0 293 -4 534 -9 537 -4 3 -16 -3 -25 -13z"/>
<path d="M7688 9023 c7 -3 16 -2 19 1 4 3 -2 6 -13 5 -11 0 -14 -3 -6 -6z"/>
<path d="M5739 8970 c-3 -20 -10 -24 -36 -25 -46 -1 -54 -13 -45 -70 4 -28 5
-131 1 -230 -4 -99 -10 -271 -13 -383 -3 -112 -8 -208 -12 -213 -3 -6 -1 -16
5 -23 9 -11 17 -11 36 -2 28 12 33 26 10 26 -10 0 -15 10 -15 27 l0 27 16 -23
16 -22 19 20 c21 23 84 135 94 168 4 16 2 22 -7 20 -7 -2 -10 -2 -5 0 13 8 8
93 -7 99 -15 6 -23 70 -36 324 -5 97 -13 187 -18 200 -6 15 -6 36 0 52 6 15 8
33 5 40 -2 7 -6 2 -8 -12z"/>
<path d="M6612 8865 c-14 -31 -15 -35 -3 -35 9 0 25 49 18 56 -2 2 -9 -7 -15
-21z"/>
<path d="M8241 7991 c-19 -12 -27 -106 -11 -126 17 -21 29 -19 40 8 5 13 9 16
10 7 0 -13 1 -13 10 0 15 23 12 73 -6 98 -17 24 -22 26 -43 13z"/>
<path d="M8451 7879 c-1 -14 -55 -69 -83 -83 -32 -16 -57 -33 -98 -66 -40 -32
-210 -120 -231 -120 -12 0 -12 -5 6 -47 12 -29 15 -98 15 -399 0 -251 3 -364
11 -364 6 0 36 21 67 46 56 46 197 119 277 144 22 7 43 18 47 24 10 15 9 779
-1 836 -5 25 -9 38 -10 29z"/>
<path d="M6340 7651 c-6 -12 -7 -21 -1 -21 10 0 24 30 17 37 -2 3 -9 -5 -16
-16z"/>
<path d="M6320 7606 c0 -9 -4 -14 -10 -11 -7 4 -10 -112 -10 -340 0 -321 1
-345 16 -330 17 17 66 13 72 -6 2 -5 14 -9 27 -9 17 0 25 7 28 23 2 12 5 1 6
-25 0 -27 5 -48 10 -48 10 0 20 -34 30 -110 8 -55 8 -54 10 28 1 75 3 82 21
82 14 0 20 7 20 23 0 12 3 40 6 62 4 30 3 36 -5 25 -8 -12 -11 -5 -11 28 0 35
-4 45 -20 49 -11 3 -20 13 -20 23 0 9 -11 34 -25 55 -22 31 -26 49 -26 111 0
50 -5 79 -15 88 -8 8 -14 19 -14 25 0 6 -4 11 -10 11 -5 0 -10 9 -10 20 0 11
-9 28 -20 37 -13 12 -20 31 -21 58 l-2 40 -7 -40 c-6 -30 -8 -19 -7 47 1 48
-2 90 -6 94 -4 4 -7 0 -7 -10z"/>
<path d="M7965 7581 c-20 -20 -268 -73 -322 -69 l-43 3 0 -90 c0 -49 -3 -106
-6 -125 -4 -27 -1 -41 15 -59 46 -53 49 -142 6 -204 -17 -26 -23 -54 -28 -123
-4 -49 -13 -103 -21 -119 -21 -43 -32 -125 -16 -125 6 0 48 -34 93 -75 44 -41
87 -75 95 -75 33 0 104 53 240 183 l62 59 0 374 0 374 -26 40 c-28 42 -34 46
-49 31z"/>
<path d="M4295 7410 c3 -5 8 -10 11 -10 2 0 4 5 4 10 0 6 -5 10 -11 10 -5 0
-7 -4 -4 -10z"/>
<path d="M4260 7250 c0 -5 5 -10 10 -10 6 0 10 5 10 10 0 6 -4 10 -10 10 -5 0
-10 -4 -10 -10z"/>
<path d="M7588 7208 c-14 -11 -15 -21 -8 -58 5 -25 6 -55 3 -67 -7 -29 22 -32
37 -4 14 27 12 91 -3 119 -11 19 -15 20 -29 10z"/>
<path d="M6740 6880 c0 -15 -7 -20 -25 -20 -14 0 -25 5 -25 10 0 6 -9 10 -20
10 -11 0 -20 -4 -20 -10 0 -5 -13 -10 -30 -10 l-30 0 0 -103 c0 -57 3 -107 6
-110 13 -12 41 13 47 41 4 21 14 31 32 36 14 4 25 11 25 16 0 6 9 10 20 10 13
0 20 7 20 19 0 35 12 51 36 51 21 0 24 4 24 40 0 38 -2 40 -30 40 -23 0 -30
-4 -30 -20z"/>
<path d="M6300 6656 c0 -168 3 -205 14 -209 9 -4 17 1 19 11 2 9 3 7 2 -6 -1
-12 4 -39 11 -60 l13 -37 1 67 c0 44 -4 68 -12 71 -7 3 -3 6 9 6 17 1 27 -8
38 -35 8 -20 15 -43 15 -51 0 -7 9 -24 20 -36 15 -16 19 -29 15 -52 -5 -23 -4
-26 4 -15 9 12 11 10 11 -12 0 -36 10 -58 24 -58 36 0 50 201 19 265 -9 19
-20 35 -25 35 -4 0 -8 8 -8 18 0 26 -53 172 -63 172 -5 0 -18 11 -28 24 -10
13 -30 27 -44 30 -30 8 -33 26 -5 33 22 6 18 18 -11 33 -19 10 -19 6 -19 -194z"/>
<path d="M7401 6650 c1 -69 2 -72 10 -32 4 23 11 47 14 52 3 6 -1 20 -9 32
-15 21 -16 18 -15 -52z"/>
<path d="M6542 6655 c0 -16 2 -22 5 -12 2 9 2 23 0 30 -3 6 -5 -1 -5 -18z"/>
<path d="M7351 6658 c0 -14 -6 -28 -12 -30 -9 -3 -8 -11 2 -28 l14 -25 3 28
c2 15 1 39 -1 55 l-4 27 -2 -27z"/>
<path d="M7482 6630 c-12 -10 -22 -29 -22 -43 0 -31 -40 -84 -50 -66 -4 6 -11
-40 -15 -104 -7 -110 -9 -119 -42 -169 -19 -29 -52 -90 -75 -136 -36 -73 -39
-87 -31 -120 5 -21 6 -89 1 -162 -18 -276 -20 -362 -9 -373 6 -6 11 -23 11
-38 0 -68 37 -82 58 -21 28 83 40 141 46 228 6 78 4 98 -13 145 -23 58 -26
121 -11 234 17 137 29 185 64 259 20 42 36 79 36 84 0 18 39 128 64 182 25 54
33 104 18 113 -4 3 -17 -3 -30 -13z"/>
<path d="M4460 6559 c0 -11 5 -17 10 -14 6 3 10 13 10 21 0 8 -4 14 -10 14 -5
0 -10 -9 -10 -21z"/>
<path d="M7103 6573 l-53 -4 0 -40 0 -39 50 0 c30 0 50 -4 50 -11 0 -7 -10 -9
-25 -7 -14 3 -25 2 -25 -1 0 -3 -22 -4 -50 -3 l-50 4 0 -35 c0 -42 -11 -51
-57 -49 -33 1 -33 1 -33 -44 0 -28 -4 -43 -10 -39 -5 3 -10 24 -10 46 0 32 -3
39 -20 39 -16 0 -20 -7 -20 -35 0 -31 -3 -35 -25 -35 -24 0 -25 -3 -25 -60 0
-36 -4 -60 -11 -60 -6 0 -9 -17 -7 -42 l3 -43 105 0 105 0 -1 56 -1 55 28 -4
c26 -4 29 -1 29 22 0 22 4 26 30 26 25 0 32 6 49 45 11 25 25 45 30 45 6 0 11
6 11 14 0 8 7 16 15 20 9 3 15 18 15 39 0 19 5 48 11 66 17 48 5 81 -29 79
-15 -1 -51 -3 -79 -5z"/>
<path d="M6263 6392 c-6 -4 -14 -23 -18 -43 -8 -45 17 -102 40 -92 19 7 40 43
25 43 -5 0 -10 5 -10 11 0 5 5 7 10 4 13 -8 13 26 0 59 -10 26 -25 32 -47 18z
m19 -94 c-9 -9 -12 -7 -12 12 0 19 3 21 12 12 9 -9 9 -15 0 -24z"/>
<path d="M7347 6370 c-9 -29 -25 -67 -39 -93 -5 -11 -7 -21 -5 -23 10 -10 58
92 55 116 l-3 25 -8 -25z"/>
<path d="M6354 6309 c-3 -6 -1 -16 5 -22 8 -8 11 -5 11 11 0 24 -5 28 -16 11z"/>
<path d="M8086 6240 c-37 -27 -84 -50 -100 -50 -10 0 -19 -11 -22 -30 -7 -33
-40 -42 -50 -15 -4 8 -14 15 -23 15 -22 0 -93 -65 -114 -105 -9 -16 -16 -24
-17 -16 0 20 -50 -30 -50 -51 0 -12 -8 -18 -21 -18 -12 0 -29 -8 -38 -19 -9
-10 -33 -24 -53 -31 -20 -8 -39 -22 -41 -32 -4 -12 -15 -18 -36 -18 -20 0 -31
-5 -31 -14 0 -7 -7 -19 -15 -26 -8 -7 -15 -22 -15 -34 0 -11 -7 -34 -15 -50
-31 -59 -29 -383 3 -394 7 -2 12 5 12 15 0 11 11 29 25 41 14 12 25 29 25 37
0 8 5 15 10 15 6 0 10 15 10 33 0 37 15 57 42 57 13 0 18 8 18 28 0 15 6 43
13 62 9 28 17 34 35 32 12 -2 22 1 22 7 0 6 11 11 25 11 18 0 25 5 25 20 0 15
7 20 25 20 23 0 25 4 25 45 0 40 3 45 23 45 26 0 38 8 53 34 6 12 22 20 40 21
16 1 53 2 82 3 45 2 55 5 59 22 3 11 14 20 24 20 16 0 19 -8 19 -45 0 -33 -4
-45 -15 -45 -10 0 -15 -12 -17 -37 0 -21 -2 -50 -3 -64 -1 -15 3 -26 11 -26 6
0 10 7 7 16 -4 14 -3 14 9 0 8 -9 20 -51 27 -93 15 -85 26 -101 41 -60 l11 27
22 -22 c13 -11 26 -21 30 -21 10 0 37 69 37 95 0 38 32 85 58 85 22 0 26 9 22
62 -1 14 3 29 9 33 6 3 11 24 11 46 0 35 3 39 25 39 23 0 25 3 25 51 0 27 4
48 9 45 24 -15 41 7 41 55 0 46 -2 49 -25 49 -23 0 -25 4 -25 45 0 42 -2 45
-26 45 -23 0 -66 19 -102 44 -22 16 -133 13 -156 -4z"/>
<path d="M5388 6233 c6 -2 18 -2 25 0 6 3 1 5 -13 5 -14 0 -19 -2 -12 -5z"/>
<path d="M6331 6224 c0 -11 3 -14 6 -6 3 7 2 16 -1 19 -3 4 -6 -2 -5 -13z"/>
<path d="M8420 6234 c0 -13 18 -39 24 -34 2 3 -2 14 -10 24 -8 11 -14 16 -14
10z"/>
<path d="M5326 6203 c-11 -11 -6 -23 8 -23 8 0 17 4 20 9 7 10 -19 23 -28 14z"/>
<path d="M8473 6150 c0 -25 2 -35 4 -22 2 12 2 32 0 45 -2 12 -4 2 -4 -23z"/>
<path d="M7221 6124 c-11 -14 -26 -27 -34 -28 -7 -1 -26 -12 -41 -24 -16 -12
-32 -22 -37 -22 -4 0 -14 -6 -22 -14 -7 -8 -39 -30 -70 -50 -32 -20 -57 -41
-57 -46 0 -5 -13 -15 -30 -24 -16 -8 -30 -11 -30 -6 0 5 -10 10 -22 12 -17 2
-24 11 -26 31 -3 21 -9 27 -27 27 -13 0 -26 6 -28 13 -3 6 -6 -5 -6 -26 -1
-30 -6 -39 -26 -47 -14 -5 -25 -14 -25 -20 0 -5 -9 -10 -19 -10 -11 0 -23 -4
-26 -10 -3 -5 -17 -10 -31 -10 -17 0 -24 -5 -24 -20 0 -34 -39 -26 -46 10 -5
23 -12 30 -30 30 -21 0 -24 5 -25 43 -1 41 -1 41 -12 15 -11 -29 -32 -37 -41
-15 -3 6 -3 0 0 -15 5 -24 3 -28 -16 -28 -21 0 -80 -52 -80 -71 0 -4 -17 -20
-37 -35 -60 -44 -63 -50 -63 -146 l0 -88 50 0 51 0 -2 -106 c-2 -111 7 -138
36 -114 13 11 15 8 15 -24 l0 -36 50 0 c44 0 50 3 50 21 0 19 4 20 55 14 54
-7 55 -7 55 18 0 22 5 26 44 31 36 6 45 11 50 32 9 33 49 30 54 -3 3 -17 10
-23 28 -23 22 0 24 4 24 45 0 41 2 45 25 45 19 0 25 -5 25 -21 0 -11 5 -17 10
-14 6 3 10 35 10 71 0 50 3 64 15 64 11 0 15 12 15 45 0 41 2 45 24 45 28 0
37 19 30 63 -5 30 -4 29 10 -8 9 -22 16 -41 16 -43 0 -2 4 0 10 3 6 4 3 16 -8
33 -12 18 -17 45 -16 87 1 95 39 147 94 130 11 -3 20 -2 20 4 0 5 24 52 54
103 69 119 88 177 37 112z"/>
<path d="M5597 6013 c-4 -3 -8 -25 -8 -47 -1 -25 -3 -32 -6 -18 -4 22 -5 23
-18 5 -20 -25 -19 -98 1 -117 8 -9 26 -16 39 -16 18 0 25 -7 31 -32 4 -18 6
-47 6 -65 -1 -22 5 -37 18 -46 17 -12 20 -27 21 -93 2 -84 14 -133 29 -118 13
13 37 124 32 152 -2 12 -10 22 -18 22 -11 0 -13 6 -9 21 4 12 2 31 -3 43 -6
11 -18 68 -27 126 -22 144 -56 215 -88 183z"/>
<path d="M5264 5995 c-4 -8 -3 -26 0 -39 3 -14 2 -27 -3 -30 -17 -11 -24 -81
-22 -225 1 -103 5 -149 15 -163 10 -14 11 -26 3 -47 -16 -44 7 -107 36 -96 11
5 18 26 22 71 4 35 14 69 21 75 16 13 19 99 4 99 -6 0 -10 45 -10 115 l0 115
-24 0 c-18 0 -26 -7 -29 -22 -3 -15 -5 -11 -6 12 0 20 6 46 15 58 8 12 11 22
6 22 -15 0 -24 32 -12 44 13 13 13 26 0 26 -6 0 -13 -7 -16 -15z"/>
<path d="M8417 5998 c-8 -24 14 -68 34 -68 16 0 19 7 19 40 0 36 -3 40 -24 40
-13 0 -26 -6 -29 -12z"/>
<path d="M7217 5973 c-4 -3 -7 -11 -7 -17 0 -6 5 -5 12 2 6 6 9 14 7 17 -3 3
-9 2 -12 -2z"/>
<path d="M7150 5859 c0 -5 5 -7 10 -4 6 3 10 8 10 11 0 2 -4 4 -10 4 -5 0 -10
-5 -10 -11z"/>
<path d="M7056 5825 c-17 -36 -13 -79 10 -102 16 -17 19 -16 38 3 20 20 21 83
0 112 -21 30 -29 28 -48 -13z m54 -45 c0 -21 -15 -27 -25 -10 -7 12 2 30 16
30 5 0 9 -9 9 -20z"/>
<path d="M5580 5691 c0 -23 5 -41 10 -41 6 0 10 15 10 34 0 19 -4 38 -10 41
-6 4 -10 -10 -10 -34z"/>
<path d="M4883 5685 c8 -48 48 -145 60 -145 5 0 7 10 3 23 -3 12 -11 47 -17
78 -7 37 -18 60 -31 68 -20 12 -21 11 -15 -24z"/>
<path d="M6170 5650 c0 -5 5 -10 10 -10 6 0 10 5 10 10 0 6 -4 10 -10 10 -5 0
-10 -4 -10 -10z"/>
<path d="M7058 5643 c6 -2 18 -2 25 0 6 3 1 5 -13 5 -14 0 -19 -2 -12 -5z"/>
<path d="M6036 5452 c-3 -5 -5 -48 -5 -95 l0 -87 42 0 c23 0 59 -3 80 -6 l37
-7 0 102 0 101 -74 0 c-41 0 -77 -4 -80 -8z"/>
<path d="M6260 5362 c17 -5 27 -18 32 -37 6 -29 6 -28 5 5 -2 31 -5 35 -32 37
-28 2 -28 1 -5 -5z"/>
<path d="M5721 5314 c0 -11 3 -14 6 -6 3 7 2 16 -1 19 -3 4 -6 -2 -5 -13z"/>
<path d="M2910 15793 c-43 -22 -95 -97 -117 -172 -28 -88 -25 -276 5 -366 43
-129 95 -185 171 -185 67 0 110 32 152 114 89 170 69 454 -40 578 -32 35 -43
41 -86 45 -35 3 -60 -1 -85 -14z m86 -98 c8 -32 -3 -75 -19 -75 -21 0 -37 22
-37 50 0 49 45 69 56 25z m23 -114 c19 -12 30 -191 12 -191 -7 0 -12 26 -13
68 -1 37 -5 -14 -8 -113 -6 -199 -21 -239 -31 -78 -6 108 -11 100 -13 -21 -1
-53 -5 -81 -13 -83 -10 -4 -13 36 -15 174 -1 98 -3 151 -5 118 -7 -101 -23
-89 -23 16 0 61 4 99 12 107 14 14 77 16 97 3z"/>
<path d="M12083 14793 c37 -2 96 -2 130 0 34 2 4 3 -68 3 -71 0 -99 -1 -62 -3z"/>
<path d="M12142 14540 c0 -14 2 -19 5 -12 2 6 2 18 0 25 -3 6 -5 1 -5 -13z"/>
<path d="M7910 19550 l0 -70 -50 6 c-33 4 -50 2 -50 -5 0 -6 -11 -11 -25 -11
-14 0 -25 -6 -26 -12 -1 -32 3 -203 5 -205 1 -2 24 -4 51 -5 47 -3 48 -2 58
32 l9 35 19 -42 c13 -31 24 -43 39 -43 11 0 20 -4 20 -10 0 -5 11 -10 25 -10
14 0 25 4 25 8 0 10 228 32 333 32 62 0 77 3 77 15 0 11 12 15 50 15 28 0 50
5 50 10 0 6 23 10 50 10 28 0 50 -4 50 -10 0 -5 23 -10 50 -10 28 0 50 5 50
10 0 6 22 10 49 10 32 0 51 5 54 14 3 7 27 17 52 21 34 5 49 12 52 25 3 10 15
20 26 22 24 3 34 33 36 106 1 27 -3 41 -9 37 -6 -4 -10 13 -10 44 l0 51 -530
0 -530 0 0 -70z"/>
<path d="M9840 1920 c0 -6 40 -10 100 -10 60 0 100 4 100 10 0 6 -40 10 -100
10 -60 0 -100 -4 -100 -10z"/>
<path d="M10300 1730 c0 -15 7 -20 26 -20 20 0 25 4 20 16 -3 9 -6 18 -6 20 0
2 -9 4 -20 4 -13 0 -20 -7 -20 -20z"/>
<path d="M10713 1613 c9 -2 23 -2 30 0 6 3 -1 5 -18 5 -16 0 -22 -2 -12 -5z"/>
<path d="M12945 590 c3 -5 12 -7 20 -3 21 7 19 13 -6 13 -11 0 -18 -4 -14 -10z"/>
</g>
</svg>
