<svg xmlns="http://www.w3.org/2000/svg" xmlns:xlink="http://www.w3.org/1999/xlink" fill="none" version="1.1" width="15" height="16" viewBox="0 0 15 16"><defs><clipPath id="master_svg0_29_677"><rect x="0" y="0" width="15" height="16" rx="0"/></clipPath></defs><g clip-path="url(#master_svg0_29_677)"><g transform="matrix(1,0,0,-1,0,30.6875)"><g><path d="M3.96875,25.87495Q3.15625,25.03125,2.78125,24Q2.625,23.625,2.28125,23.4375Q1.90625,23.28125,1.5,23.40625Q1.125,23.5625,0.9375,23.90625Q0.78125,24.28125,0.90625,24.6875Q1.40625,26.12495,2.5625,27.28125Q3.9375,28.65625,5.71875,29.12495Q7.46875,29.56255,9.25,29.12495Q11.0312,28.68755,12.4062,27.31255L13.7188,28.62495Q14.0938,28.96875,14.5312,28.78125Q14.9688,28.59375,15,28.09375L15,24.09375Q14.9375,23.40625,14.25,23.34375L14,23.34375L10.25,23.34375Q9.75,23.375,9.5625,23.8125Q9.375,24.25,9.71875,24.625L11,25.90625Q9.46875,27.34375,7.46875,27.34375Q5.5,27.34375,3.96875,25.87495ZM0,20.59375Q0.0625,21.28125,0.75,21.34375L1,21.34375L4.75,21.34375Q5.25,21.3125,5.4375,20.875Q5.625,20.4375,5.28125,20.0625L4,18.78125Q5.53125,17.34375,7.53125,17.34375Q9.5,17.34375,11.0312,18.8125Q11.8438,19.65625,12.2188,20.6875Q12.375,21.0625,12.7188,21.25Q13.0938,21.40625,13.5,21.28125Q13.875,21.125,14.0625,20.78125Q14.25,20.40625,14.0938,20Q13.5938,18.5625,12.4375,17.40625Q11.0625,16.03125,9.28125,15.5625Q7.53125,15.125,5.75,15.5625Q3.96875,16,2.59375,17.375L1.28125,16.0625Q0.90625,15.71875,0.46875,15.90625Q0.03125,16.09375,0,16.59375L0,20.34375L0,20.59375Z" fill="#2563EB" fill-opacity="1" style="mix-blend-mode:passthrough"/></g></g></g></svg>