<svg xmlns="http://www.w3.org/2000/svg" xmlns:xlink="http://www.w3.org/1999/xlink" fill="none" version="1.1" width="12" height="12" viewBox="0 0 12 12"><defs><clipPath id="master_svg0_45_0515"><rect x="0" y="0" width="12" height="12" rx="0"/></clipPath></defs><g clip-path="url(#master_svg0_45_0515)"><g transform="matrix(1,0,0,-1,0,24.374975204467773)"><g><path d="M6.0005670528596635,24.117187602233887Q6.174847052859664,24.117187602233887,6.324227052859664,24.046887602233888L11.029657052859664,22.17186760223389Q11.452857052859663,22.007797602233886,11.701857052859664,21.656237602233887Q11.975657052859663,21.304677602233888,11.975657052859663,20.835927602233888Q12.000557052859664,19.640607602233885,11.552457052859664,18.023427602233888Q11.104257052859664,16.406237602233887,9.934177052859663,14.882797602233886Q8.788957052859663,13.335927602233888,6.647877052859664,12.328112602233887Q6.0005670528596635,12.046862602233887,5.353267052859664,12.328112602233887Q3.212187052859664,13.335927602233888,2.066957052859664,14.882797602233886Q0.896837052859664,16.406237602233887,0.44870405285966397,18.023427602233888Q0.0005711528596639634,19.640607602233885,0.025467372859663964,20.835927602233888Q0.025467372859663964,21.304677602233888,0.29932605285966396,21.656237602233887Q0.548289052859664,22.007797602233886,0.971525052859664,22.17186760223389L5.676917052859664,24.046887602233888Q5.826297052859664,24.117187602233887,6.0005670528596635,24.117187602233887ZM6.0005670528596635,22.546887602233888L6.0005670528596635,13.687487602233887L6.0005670528596635,22.546887602233888L6.0005670528596635,13.687487602233887Q7.693517052859664,14.507797602233886,8.664467052859663,15.773427602233888Q9.610527052859664,17.039047602233886,10.008867052859664,18.374987602233887Q10.382357052859664,19.73436760223389,10.382357052859664,20.812487602233887L6.0005670528596635,22.546887602233888Z" fill="#6B7280" fill-opacity="1" style="mix-blend-mode:passthrough"/></g></g></g></svg>