<svg xmlns="http://www.w3.org/2000/svg" xmlns:xlink="http://www.w3.org/1999/xlink" fill="none" version="1.1" width="16" height="16" viewBox="0 0 16 16"><defs><clipPath id="master_svg0_31_0039"><rect x="0" y="0" width="16" height="16" rx="0"/></clipPath></defs><g clip-path="url(#master_svg0_31_0039)"><g transform="matrix(1,0,0,-1,0,28.5)"><g><path d="M2,24.75Q1.53125,24.7188,1.5,24.25L1.5,23.5625L6.90625,19.125Q7.40625,18.75,8,18.75Q8.625,18.75,9.125,19.125L14.5,23.5625L14.5,24.25Q14.4688,24.7188,14,24.75L2,24.75ZM1.5,21.625L1.5,16.25L1.5,21.625L1.5,16.25Q1.53125,15.78125,2,15.75L14,15.75Q14.4688,15.78125,14.5,16.25L14.5,21.625L10.0625,17.96875Q9.125,17.25,8,17.25Q6.875,17.25,5.9375,17.96875L1.5,21.625ZM0,24.25Q0.03125,25.0938,0.59375,25.6562Q1.15625,26.2188,2,26.25L14,26.25Q14.8438,26.2188,15.4062,25.6562Q15.9688,25.0938,16,24.25L16,16.25Q15.9688,15.40625,15.4062,14.84375Q14.8438,14.28125,14,14.25L2,14.25Q1.15625,14.28125,0.59375,14.84375Q0.03125,15.40625,0,16.25L0,24.25Z" fill="#9CA3AF" fill-opacity="1" style="mix-blend-mode:passthrough"/></g></g></g></svg>