<svg xmlns="http://www.w3.org/2000/svg" xmlns:xlink="http://www.w3.org/1999/xlink" fill="none" version="1.1" width="36" height="36" viewBox="0 0 36 36"><defs><clipPath id="master_svg0_45_0505"><rect x="0" y="0" width="36" height="36" rx="0"/></clipPath></defs><g clip-path="url(#master_svg0_45_0505)"><g transform="matrix(1,0,0,-1,0,73.546875)"><g><path d="M18,36.7734375Q22.9219,36.84375,27,39.1640575Q31.0781,41.5546875,33.6094,45.7734375Q36,50.0625375,36,54.7734375Q36,59.484337499999995,33.6094,63.7734375Q31.0781,67.9922375,27,70.3828375Q22.9219,72.7031375,18,72.7734375Q13.0781,72.7031375,9,70.3828375Q4.92188,67.9922375,2.39062,63.7734375Q0,59.484337499999995,0,54.7734375Q0,50.0625375,2.39062,45.7734375Q4.92188,41.5546875,9,39.1640575Q13.0781,36.84375,18,36.7734375ZM25.9453,58.0781375L16.9453,49.0781375L25.9453,58.0781375L16.9453,49.0781375Q15.75,48.0937375,14.5547,49.0781375L10.0547,53.5781375Q9.07031,54.7734375,10.0547,55.9687375Q11.25,56.9531375,12.4453,55.9687375L15.75,52.6640375L23.5547,60.4687375Q24.75,61.4531375,25.9453,60.4687375Q26.9297,59.2734375,25.9453,58.0781375Z" fill="#22C55E" fill-opacity="1" style="mix-blend-mode:passthrough"/></g></g></g></svg>