<svg xmlns="http://www.w3.org/2000/svg" xmlns:xlink="http://www.w3.org/1999/xlink" fill="none" version="1.1" width="24" height="24" viewBox="0 0 24 24"><defs><clipPath id="master_svg0_87_1646"><rect x="0" y="0" width="24" height="24" rx="0"/></clipPath></defs><g clip-path="url(#master_svg0_87_1646)"><g transform="matrix(1,0,0,-1,0,44.625)"><g><path d="M21.5156,36.9375Q21.5625,36.6094,21.5625,36.3281Q21.5625,33,19.9219,29.8125Q18.3281,26.625,15.1875,24.51562Q12.0938,22.40625,7.54688,22.3125Q3.32812,22.359375,0,24.51562Q0.5625,24.46875,1.17188,24.46875Q4.6875,24.51562,7.3125,26.57812Q5.625,26.625,4.40625,27.5625Q3.1875,28.5,2.71875,29.95312Q3.14062,29.90625,3.60938,29.90625Q4.3125,29.90625,4.92188,30.04688Q3.1875,30.42188,2.10938,31.73438Q1.03125,33.0469,0.984375,34.875L0.984375,34.9687Q1.96875,34.4063,3.1875,34.3125Q1.125,35.7656,0.984375,38.4375Q1.03125,39.7969,1.6875,40.9219Q3.51562,38.6719,6.14062,37.3125Q8.71875,35.9531,11.8125,35.7656Q11.7188,36.3281,11.7188,36.8906Q11.7656,38.9531,13.125,40.3594Q14.5312,41.7656,16.5938,41.8125Q18.7969,41.7656,20.2031,40.2656Q21.8906,40.5937,23.3438,41.4375Q22.7344,39.7031,21.1875,38.7187Q22.6406,38.9063,24,39.5156Q22.9688,38.0156,21.5156,36.9375Z" fill="#9CA3AF" fill-opacity="1" style="mix-blend-mode:passthrough"/></g></g></g></svg>