<svg xmlns="http://www.w3.org/2000/svg" xmlns:xlink="http://www.w3.org/1999/xlink" fill="none" version="1.1" width="12.25" height="14" viewBox="0 0 12.25 14"><defs><clipPath id="master_svg0_31_4494"><rect x="0" y="0" width="12.25" height="14" rx="0"/></clipPath></defs><g clip-path="url(#master_svg0_31_4494)"><g transform="matrix(1,0,0,-1,0,25.1015625)"><g><path d="M12.0039,17.17187125Q12.25,17.44531125,12.25,17.80078125Q12.25,18.15625125,12.0039,18.42969125L7.62891,22.80468125Q7.35547,23.05078125,7,23.05078125Q6.64453,23.05078125,6.37109,22.80468125Q6.125,22.53125125,6.125,22.17578125Q6.125,21.82031125,6.37109,21.546871250000002L9.26953,18.67578125L0.875,18.67578125Q0.492188,18.67578125,0.246094,18.42969125Q0,18.18359125,0,17.80078125Q0,17.41797125,0.246094,17.17187125Q0.492188,16.92578125,0.875,16.92578125L9.26953,16.92578125L6.37109,14.05469125Q6.125,13.78125125,6.125,13.42578125Q6.125,13.07031225,6.37109,12.79687525Q6.64453,12.55078125,7,12.55078125Q7.35547,12.55078125,7.62891,12.79687525L12.0039,17.17187125Z" fill="#FFFFFF" fill-opacity="1" style="mix-blend-mode:passthrough"/></g></g></g></svg>