<svg xmlns="http://www.w3.org/2000/svg" xmlns:xlink="http://www.w3.org/1999/xlink" fill="none" version="1.1" width="24" height="24" viewBox="0 0 24 24"><defs><clipPath id="master_svg0_87_1651"><rect x="0" y="0" width="24" height="24" rx="0"/></clipPath></defs><g clip-path="url(#master_svg0_87_1651)"><g transform="matrix(1,0,0,-1,0,48.9375)"><g><path d="M24,36.37495Q23.9531,39.74995,22.3594,42.42185Q20.7656,45.14065,18.0469,46.73435Q15.375,48.32815,12,48.37495Q8.625,48.32815,5.95312,46.73435Q3.23438,45.14065,1.64062,42.42185Q0.046875,39.74995,0,36.37495Q0.09375,32.0625,2.57812,28.92187Q5.10938,25.78125,9.09375,24.703125L9.09375,32.71875L6.60938,32.71875L6.60938,36.37495L9.09375,36.37495L9.09375,37.96875Q9.04688,44.01565,14.9531,43.92185Q15.5625,43.92185,16.3594,43.82815Q17.1094,43.73435,17.5781,43.64065L17.5781,40.31255Q17.1094,40.35935,16.1719,40.35935Q14.7188,40.35935,14.0625,39.74995Q13.4531,39.09375,13.4531,37.68755L13.4531,36.37495L17.3906,36.37495L16.6875,32.71875L13.4531,32.71875L13.4531,24.46875Q18,25.125,20.9531,28.40625Q23.9062,31.6875,24,36.37495Z" fill="#9CA3AF" fill-opacity="1" style="mix-blend-mode:passthrough"/></g></g></g></svg>