<svg xmlns="http://www.w3.org/2000/svg" xmlns:xlink="http://www.w3.org/1999/xlink" fill="none" version="1.1" width="33.75" height="30" viewBox="0 0 33.75 30"><defs><clipPath id="master_svg0_87_1631"><rect x="0" y="0" width="33.75" height="30" rx="0"/></clipPath></defs><g clip-path="url(#master_svg0_87_1631)"><g transform="matrix(1,0,0,-1,0,57.5390625)"><g><path d="M6.5625,51.26953125Q5.39062,51.21093125,4.57031,50.44923125Q3.80859,49.62893125,3.75,48.45703125L3.75,41.89453125L9.375,41.89453125L9.375,48.45703125Q9.31641,49.62893125,8.55469,50.44923125Q7.73438,51.21093125,6.5625,51.26953125ZM0,48.45703125Q0.0585938,51.26953125,1.93359,53.08593125Q3.75,54.96093125,6.5625,55.01953125Q9.375,54.96093125,11.1914,53.08593125Q13.0664,51.26953125,13.125,48.45703125L13.125,35.33203125Q13.0664,32.51953125,11.1914,30.70312125Q9.375,28.82812505,6.5625,28.76953125Q3.75,28.82812505,1.93359,30.70312125Q0.0585938,32.51953125,0,35.33203125L0,48.45703125ZM32.5195,33.51562125Q32.168,32.92969125,31.582,32.92969125Q30.9961,32.87109125,30.5273,33.28125125L19.5703,44.29683125Q19.1016,44.76563125,19.1602,45.35153125Q19.1602,45.93753125,19.7461,46.28903125Q21.7969,47.46093125,24.375,47.51953125Q28.3594,47.40233125,30.9961,44.76563125Q33.6328,42.12893125,33.75,38.14453125Q33.6914,35.56641125,32.5195,33.51562125ZM29.0039,30.00000125Q26.9531,28.82812505,24.375,28.76953125Q20.3906,28.88671925,17.7539,31.52344125Q15.1172,34.16015125,15,38.14453125Q15.0586,40.72263125,16.2305,42.77343125Q16.582,43.35933125,17.168,43.35933125Q17.7539,43.41793125,18.2227,42.94923125L29.2383,31.99219125Q29.6484,31.52344125,29.5898,30.93750125Q29.5898,30.35156125,29.0039,30.00000125Z" fill="#2563EB" fill-opacity="1" style="mix-blend-mode:passthrough"/></g></g></g></svg>