<svg xmlns="http://www.w3.org/2000/svg" xmlns:xlink="http://www.w3.org/1999/xlink" fill="none" version="1.1" width="21" height="24" viewBox="0 0 21 24"><defs><clipPath id="master_svg0_87_1661"><rect x="0" y="0" width="21" height="24" rx="0"/></clipPath></defs><g clip-path="url(#master_svg0_87_1661)"><g transform="matrix(1,0,0,-1,0,46.125)"><g><path d="M10.5,38.9531Q8.20312,38.9063,6.70312,37.3594Q5.15625,35.8594,5.10938,33.5625Q5.15625,31.26562,6.70312,29.76562Q8.20312,28.21875,10.5,28.17188Q12.7969,28.21875,14.2969,29.76562Q15.8438,31.26562,15.8906,33.5625Q15.8438,35.8594,14.2969,37.3594Q12.7969,38.9063,10.5,38.9531ZM10.5,30.04688Q9,30.09375,8.01562,31.07812Q7.03125,32.0625,6.98438,33.5625Q7.03125,35.0625,8.01562,36.0469Q9,37.0313,10.5,37.0781Q12,37.0313,12.9844,36.0469Q13.9688,35.0625,14.0156,33.5625Q13.9688,32.0625,12.9844,31.07812Q12,30.09375,10.5,30.04688ZM17.3906,39.1875Q17.25,38.0156,16.125,37.9219Q14.9531,38.0156,14.8594,39.1875Q14.8594,39.7031,15.2344,40.0781Q15.5625,40.4063,16.125,40.4063Q16.6406,40.4063,17.0156,40.0781Q17.3438,39.7031,17.3906,39.1875ZM20.9531,37.875Q20.9531,40.4531,19.2188,42.2813Q17.3906,44.0156,14.8594,44.0156Q13.9219,44.0625,12.1875,44.0625Q10.5,44.0625,8.8125,44.0625Q7.07812,44.0625,6.1875,44.0156Q3.65625,44.0156,1.78125,42.2813Q0.046875,40.4531,0.09375,37.9219Q0,36.9844,0,35.25Q0,33.5625,0,31.875Q0,30.1875,0.09375,29.25Q0.046875,26.67188,1.78125,24.84375Q3.60938,23.109375,6.1875,23.15625Q7.07812,23.109375,8.8125,23.0625Q10.5,23.0625,12.1875,23.0625Q13.9219,23.109375,14.8594,23.15625Q17.3906,23.109375,19.2188,24.84375Q20.9531,26.67188,20.9531,29.25Q21,30.1875,21,31.875Q21,33.5625,21,35.25Q21,36.9844,20.9531,37.9219L20.9531,37.875ZM18.7031,27.375Q18.0938,25.96875,16.6875,25.35938Q15.75,25.03125,14.1562,24.98438Q12.5625,24.9375,11.25,24.9375Q10.8281,24.9375,10.5,24.9375Q10.1719,24.9375,9.75,24.9375Q8.4375,24.9375,6.84375,24.98438Q5.29688,25.03125,4.3125,25.35938Q2.90625,25.96875,2.29688,27.375Q1.96875,28.35938,1.92188,29.90625Q1.875,31.5,1.875,32.8125Q1.875,33.2344,1.875,33.5625Q1.875,33.8906,1.875,34.3125Q1.875,35.625,1.92188,37.2187Q1.96875,38.8125,2.29688,39.75Q2.90625,41.1563,4.3125,41.7656Q5.29688,42.0937,6.84375,42.1406Q8.4375,42.2344,9.75,42.1875Q10.1719,42.1875,10.5,42.1875Q10.8281,42.1875,11.25,42.1875Q12.5625,42.1875,14.1562,42.1406Q15.75,42.0937,16.6875,41.7656Q18.0938,41.1563,18.7031,39.75Q19.0312,38.8125,19.0781,37.2187Q19.1719,35.625,19.125,34.3125Q19.125,33.8906,19.125,33.5625Q19.125,33.2344,19.125,32.8125Q19.1719,31.5,19.0781,29.90625Q19.0312,28.3125,18.7031,27.375Z" fill="#9CA3AF" fill-opacity="1" style="mix-blend-mode:passthrough"/></g></g></g></svg>