<svg xmlns="http://www.w3.org/2000/svg" xmlns:xlink="http://www.w3.org/1999/xlink" fill="none" version="1.1" width="28.234375" height="30" viewBox="0 0 28.234375 30"><defs><clipPath id="master_svg0_87_3015"><rect x="0" y="0" width="28.234375" height="30" rx="0"/></clipPath></defs><g clip-path="url(#master_svg0_87_3015)"><g transform="matrix(1,0,0,-1,0,60.9375114440918)"><g><path d="M14.117194546890259,60.2929557220459Q14.527194546890259,60.2929557220459,14.878694546890259,60.117155722045894L25.94989454689026,55.429655722045894Q26.94569454689026,55.019555722045894,27.531494546890258,54.1406557220459Q28.17579454689026,53.2617557220459,28.17579454689026,52.0898557220459Q28.234394546890258,49.1015557220459,27.17999454689026,45.058555722045895Q26.12559454689026,41.0156557220459,23.37239454689026,37.2070357220459Q20.677894546890258,33.3398457220459,15.640194546890259,30.8203177220459Q14.117194546890259,30.117193722045897,12.59419454689026,30.8203177220459Q7.556504546890259,33.3398457220459,4.861934546890259,37.2070357220459Q2.108794546890259,41.0156557220459,1.0543955468902588,45.058555722045895Q4.689025878690245e-8,49.1015557220459,0.05857756689025879,52.0898557220459Q0.05857756689025879,53.2617557220459,0.7029305468902588,54.1406557220459Q1.2887045468902587,55.019555722045894,2.2845245468902586,55.429655722045894L13.355694546890259,60.117155722045894Q13.707094546890259,60.2929557220459,14.117194546890259,60.2929557220459ZM14.117194546890259,56.367155722045894L14.117194546890259,34.2187557220459L14.117194546890259,56.367155722045894L14.117194546890259,34.2187557220459Q18.10049454689026,36.2695357220459,20.38499454689026,39.4335957220459Q22.610894546890258,42.5976557220459,23.548194546890258,45.9375557220459Q24.42679454689026,49.335955722045895,24.42679454689026,52.0312557220459L14.117194546890259,56.367155722045894Z" fill="#2563EB" fill-opacity="1" style="mix-blend-mode:passthrough"/></g></g></g></svg>