<svg xmlns="http://www.w3.org/2000/svg" xmlns:xlink="http://www.w3.org/1999/xlink" fill="none" version="1.1" width="14" height="16" viewBox="0 0 14 16"><defs><clipPath id="master_svg0_89_0882"><rect x="0" y="0" width="14" height="16" rx="0"/></clipPath></defs><g clip-path="url(#master_svg0_89_0882)"><g transform="matrix(1,0,0,-1,0,26.6875)"><g><path d="M13.7188,23.0625Q14,22.75,14,22.34375Q14,21.9375,13.7188,21.625L5.71875,13.625Q5.40625,13.34375,5,13.34375Q4.59375,13.34375,4.28125,13.625L0.28125,17.625Q0,17.9375,0,18.34375Q0,18.75,0.28125,19.0625Q0.59375,19.34375,1,19.34375Q1.40625,19.34375,1.71875,19.0625L5,15.75L12.2812,23.0625Q12.5938,23.34375,13,23.34375Q13.4062,23.34375,13.7188,23.0625Z" fill="#22C55E" fill-opacity="1" style="mix-blend-mode:passthrough"/></g></g></g></svg>